<svg width="26" height="43" viewBox="0 0 26 43" fill="none" xmlns="http://www.w3.org/2000/svg">
<path fill-rule="evenodd" clip-rule="evenodd" d="M7.32434 6.80537C7.32434 3.56981 9.86534 0.946854 13 0.946854C16.1347 0.946854 18.6757 3.56981 18.6757 6.80537V9.03247C18.6757 9.54163 18.2758 9.95432 17.7826 9.95432C17.2878 9.95432 16.8427 10.2653 16.6589 10.7395C16.6588 10.7396 16.6589 10.7395 16.6589 10.7395L16.5453 11.0328C16.1635 12.0178 15.2393 12.6639 14.2114 12.6639H11.7887C10.7608 12.6639 9.83653 12.0179 9.45479 11.0329L9.34123 10.7397C9.15736 10.2653 8.71231 9.95432 8.21742 9.95432C7.72419 9.95432 7.32434 9.54159 7.32434 9.03247V6.80537ZM13 1.82563C10.3355 1.82563 8.17569 4.05514 8.17569 6.80537V9.03247C8.17569 9.05626 8.19438 9.07554 8.21742 9.07554C9.06044 9.07554 9.81849 9.60531 10.1317 10.4132L10.2452 10.7065C10.2453 10.7066 10.2452 10.7065 10.2452 10.7065C10.4977 11.3579 11.1089 11.7851 11.7887 11.7851H14.2114C14.8911 11.7851 15.5023 11.358 15.7547 10.7066C15.7548 10.7066 15.7547 10.7067 15.7547 10.7066L15.8683 10.4133C16.1815 9.60545 16.9397 9.07554 17.7826 9.07554C17.8057 9.07554 17.8243 9.05623 17.8243 9.03247V6.80537C17.8243 4.05514 15.6645 1.82563 13 1.82563ZM14.75 6.36591C14.9851 6.36591 15.1757 6.56263 15.1757 6.8053V6.86261C15.1757 7.10528 14.9851 7.302 14.75 7.302C14.5149 7.302 14.3243 7.10528 14.3243 6.86261V6.8053C14.3243 6.56263 14.5149 6.36591 14.75 6.36591ZM11.25 6.366C11.4851 6.366 11.6757 6.56272 11.6757 6.80539V6.8627C11.6757 7.10537 11.4851 7.30209 11.25 7.30209C11.0149 7.30209 10.8243 7.10537 10.8243 6.8627V6.80539C10.8243 6.56272 11.0149 6.366 11.25 6.366ZM20.2678 14.823C20.3065 15.0624 20.1498 15.2888 19.9179 15.3287L19.062 15.4759C18.8301 15.5158 18.6108 15.3541 18.5721 15.1148C18.5335 14.8754 18.6901 14.649 18.922 14.6091L19.778 14.4618C20.0099 14.422 20.2292 14.5837 20.2678 14.823ZM5.73223 14.823C5.77087 14.5837 5.99019 14.422 6.22209 14.4618L7.07807 14.6091C7.30996 14.649 7.46662 14.8754 7.42797 15.1147C7.38932 15.3541 7.17 15.5158 6.93811 15.4759L6.08213 15.3287C5.85023 15.2888 5.69358 15.0624 5.73223 14.823ZM13 15.3979C13.2351 15.3979 13.4257 15.5946 13.4257 15.8372V18.1439C14.2401 18.1189 14.9598 18.0233 15.4901 17.8864C15.8039 17.8055 16.0276 17.716 16.1626 17.6337C16.2064 17.6069 16.2325 17.5865 16.247 17.5734C16.2796 17.3641 16.4554 17.2042 16.6673 17.2042C16.9024 17.2042 17.093 17.401 17.093 17.6436C17.093 18.0255 16.8033 18.2635 16.5958 18.3902C16.3597 18.5342 16.0464 18.6487 15.6966 18.739C15.0881 18.896 14.2964 18.9979 13.4257 19.0231V22.404C14.748 22.3774 15.9249 22.2279 16.7862 22.0056C17.2658 21.8819 17.6237 21.7415 17.8515 21.6025C18.0314 21.4928 18.0686 21.424 18.0749 21.4119C18.0833 21.1769 18.2705 20.989 18.5003 20.989C18.7354 20.989 18.9259 21.1857 18.9259 21.4283C18.9259 21.8755 18.585 22.1758 18.2847 22.359C17.9558 22.5596 17.5083 22.7251 16.9927 22.8582C16.051 23.1012 14.8018 23.2563 13.4257 23.2829V26.6755C13.4257 26.9182 13.2351 27.1149 13 27.1149C12.7649 27.1149 12.5743 26.9182 12.5743 26.6755V23.2829C11.1986 23.2562 9.9497 23.1011 9.00814 22.8582C8.49246 22.7251 8.04496 22.5596 7.71612 22.359C7.41578 22.1758 7.07483 21.8756 7.07483 21.4283C7.07483 21.1857 7.26541 20.989 7.5005 20.989C7.73027 20.989 7.91751 21.1769 7.92589 21.4119C7.93213 21.424 7.96942 21.4928 8.1493 21.6025C8.37708 21.7415 8.73502 21.8819 9.21463 22.0056C10.0758 22.2279 11.2524 22.3773 12.5743 22.4039V19.023C11.7041 18.9978 10.9129 18.8959 10.3047 18.739C9.95492 18.6487 9.64165 18.5342 9.40557 18.3902C9.19798 18.2635 8.90835 18.0255 8.90835 17.6436C8.90835 17.401 9.09894 17.2042 9.33403 17.2042C9.54597 17.2042 9.72173 17.3641 9.7543 17.5734C9.76889 17.5865 9.79491 17.6069 9.83877 17.6337C9.97377 17.716 10.1975 17.8055 10.5112 17.8864C11.0413 18.0232 11.7604 18.1188 12.5743 18.1439V15.8372C12.5743 15.5946 12.7649 15.3979 13 15.3979ZM9.73793 17.556C9.73808 17.556 9.73925 17.5574 9.74099 17.5601C9.73864 17.5574 9.73777 17.556 9.73793 17.556ZM16.2634 17.556C16.2636 17.556 16.2627 17.5574 16.2604 17.5601C16.2621 17.5574 16.2633 17.556 16.2634 17.556ZM4.40811 17.2357C4.62639 17.3258 4.73256 17.5815 4.64525 17.8068L2.89525 22.3227C2.80793 22.5481 2.5602 22.6577 2.34192 22.5675C2.12364 22.4774 2.01747 22.2217 2.10479 21.9964L3.85479 17.4804C3.9421 17.2551 4.18983 17.1455 4.40811 17.2357ZM21.5919 17.2357C21.8102 17.1455 22.0579 17.2551 22.1452 17.4804L23.8952 21.9964C23.9826 22.2217 23.8764 22.4774 23.6581 22.5675C23.4398 22.6577 23.1921 22.5481 23.1048 22.3227L21.3548 17.8068C21.2675 17.5815 21.3736 17.3258 21.5919 17.2357ZM1.62502 25.3329C1.86011 25.3329 2.05069 25.5296 2.05069 25.7723V29.3851C2.05069 29.6277 1.86011 29.8245 1.62502 29.8245C1.38992 29.8245 1.19934 29.6277 1.19934 29.3851V25.7723C1.19934 25.5296 1.38992 25.3329 1.62502 25.3329ZM24.375 25.3329C24.6101 25.3329 24.8007 25.5296 24.8007 25.7723V29.3851C24.8007 29.6277 24.6101 29.8245 24.375 29.8245C24.1399 29.8245 23.9493 29.6277 23.9493 29.3851V25.7723C23.9493 25.5296 24.1399 25.3329 24.375 25.3329ZM8.41692 25.7199C8.65132 25.7199 8.84147 25.9154 8.8426 26.1571C8.84362 26.1624 8.85843 26.2325 9.02339 26.3533C9.20245 26.4843 9.48916 26.6204 9.88176 26.7419C10.6615 26.9834 11.7643 27.1391 13.0004 27.1391C14.2366 27.1391 15.3392 26.9834 16.1188 26.7419C16.5114 26.6204 16.798 26.4843 16.977 26.3533C17.142 26.2325 17.1567 26.1624 17.1578 26.1571C17.1589 25.9154 17.349 25.7199 17.5834 25.7199C17.8185 25.7199 18.0091 25.9166 18.0091 26.1592C18.0091 26.5682 17.7433 26.8696 17.4696 27.07C17.1848 27.2786 16.8003 27.4484 16.3635 27.5836C15.4845 27.8559 14.2955 28.0179 13.0004 28.0179C11.7053 28.0179 10.5163 27.8559 9.63713 27.5837C9.20027 27.4484 8.81572 27.2786 8.53089 27.0701C8.25713 26.8697 7.99125 26.5682 7.99125 26.1592C7.99125 25.9166 8.18183 25.7199 8.41692 25.7199ZM9.50002 30.7521C9.73511 30.7521 9.92569 30.9488 9.92569 31.1914V37.5138C9.92569 37.7564 9.73511 37.9531 9.50002 37.9531C9.26492 37.9531 9.07434 37.7564 9.07434 37.5138V31.1914C9.07434 30.9488 9.26492 30.7521 9.50002 30.7521ZM16.5 30.7521C16.7351 30.7521 16.9257 30.9488 16.9257 31.1914V37.5138C16.9257 37.7564 16.7351 37.9531 16.5 37.9531C16.2649 37.9531 16.0743 37.7564 16.0743 37.5138V31.1914C16.0743 30.9488 16.2649 30.7521 16.5 30.7521ZM4.26184 41.1265C4.26184 40.8838 4.45242 40.6871 4.68752 40.6871H5.12502C5.36011 40.6871 5.55069 40.8838 5.55069 41.1265C5.55069 41.3692 5.36011 41.5659 5.12502 41.5659H4.68752C4.45242 41.5659 4.26184 41.3692 4.26184 41.1265ZM8.19934 41.1265C8.19934 40.8838 8.38992 40.6871 8.62502 40.6871H9.50002C9.73511 40.6871 9.92569 40.8838 9.92569 41.1265C9.92569 41.3692 9.73511 41.5659 9.50002 41.5659H8.62502C8.38992 41.5659 8.19934 41.3692 8.19934 41.1265ZM16.0743 41.1265C16.0743 40.8838 16.2649 40.6871 16.5 40.6871H17.375C17.6101 40.6871 17.8007 40.8838 17.8007 41.1265C17.8007 41.3692 17.6101 41.5659 17.375 41.5659H16.5C16.2649 41.5659 16.0743 41.3692 16.0743 41.1265ZM20.4493 41.1265C20.4493 40.8838 20.6399 40.6871 20.875 40.6871H21.3125C21.5476 40.6871 21.7382 40.8838 21.7382 41.1265C21.7382 41.3692 21.5476 41.5659 21.3125 41.5659H20.875C20.6399 41.5659 20.4493 41.3692 20.4493 41.1265Z" fill="#F3FDFF"/>
<path d="M16.6589 10.7395C16.8427 10.2653 17.2878 9.95432 17.7826 9.95432C18.2758 9.95432 18.6757 9.54163 18.6757 9.03247V6.80537C18.6757 3.56981 16.1347 0.946854 13 0.946854C9.86534 0.946854 7.32434 3.56981 7.32434 6.80537V9.03247C7.32434 9.54159 7.72419 9.95432 8.21742 9.95432C8.71231 9.95432 9.15736 10.2653 9.34123 10.7397L9.45479 11.0329C9.83653 12.0179 10.7608 12.6639 11.7887 12.6639H14.2114C15.2393 12.6639 16.1635 12.0178 16.5453 11.0328L16.6589 10.7395ZM16.6589 10.7395C16.6589 10.7395 16.6588 10.7396 16.6589 10.7395ZM10.2452 10.7065C10.2452 10.7065 10.2453 10.7066 10.2452 10.7065ZM10.2452 10.7065C10.4977 11.3579 11.1089 11.7851 11.7887 11.7851H14.2114C14.8911 11.7851 15.5023 11.358 15.7547 10.7066M10.2452 10.7065L10.1317 10.4132C9.81849 9.60531 9.06044 9.07554 8.21742 9.07554C8.19438 9.07554 8.17569 9.05626 8.17569 9.03247V6.80537C8.17569 4.05514 10.3355 1.82563 13 1.82563C15.6645 1.82563 17.8243 4.05514 17.8243 6.80537V9.03247C17.8243 9.05623 17.8057 9.07554 17.7826 9.07554C16.9397 9.07554 16.1815 9.60545 15.8683 10.4133L15.7547 10.7066M15.7547 10.7066C15.7547 10.7067 15.7548 10.7066 15.7547 10.7066ZM16.15 10.8697L16.1491 10.8693M15.1757 6.8053C15.1757 6.56263 14.9851 6.36591 14.75 6.36591C14.5149 6.36591 14.3243 6.56263 14.3243 6.8053V6.86261C14.3243 7.10528 14.5149 7.302 14.75 7.302C14.9851 7.302 15.1757 7.10528 15.1757 6.86261V6.8053ZM11.6757 6.80539C11.6757 6.56272 11.4851 6.366 11.25 6.366C11.0149 6.366 10.8243 6.56272 10.8243 6.80539V6.8627C10.8243 7.10537 11.0149 7.30209 11.25 7.30209C11.4851 7.30209 11.6757 7.10537 11.6757 6.8627V6.80539ZM19.9179 15.3287C20.1498 15.2888 20.3065 15.0624 20.2678 14.823C20.2292 14.5837 20.0099 14.422 19.778 14.4618L18.922 14.6091C18.6901 14.649 18.5335 14.8754 18.5721 15.1148C18.6108 15.3541 18.8301 15.5158 19.062 15.4759L19.9179 15.3287ZM6.22209 14.4618C5.99019 14.422 5.77087 14.5837 5.73223 14.823C5.69358 15.0624 5.85023 15.2888 6.08213 15.3287L6.93811 15.4759C7.17 15.5158 7.38932 15.3541 7.42797 15.1147C7.46662 14.8754 7.30996 14.649 7.07807 14.6091L6.22209 14.4618ZM13.4257 15.8372C13.4257 15.5946 13.2351 15.3979 13 15.3979C12.7649 15.3979 12.5743 15.5946 12.5743 15.8372V18.1439C11.7604 18.1188 11.0413 18.0232 10.5112 17.8864C10.1975 17.8055 9.97377 17.716 9.83877 17.6337C9.79491 17.6069 9.76889 17.5865 9.7543 17.5734C9.72173 17.3641 9.54597 17.2042 9.33403 17.2042C9.09894 17.2042 8.90835 17.401 8.90835 17.6436C8.90835 18.0255 9.19798 18.2635 9.40557 18.3902C9.64165 18.5342 9.95492 18.6487 10.3047 18.739C10.9129 18.8959 11.7041 18.9978 12.5743 19.023V22.4039C11.2524 22.3773 10.0758 22.2279 9.21463 22.0056C8.73502 21.8819 8.37708 21.7415 8.1493 21.6025C7.96942 21.4928 7.93213 21.424 7.92589 21.4119C7.91751 21.1769 7.73027 20.989 7.5005 20.989C7.26541 20.989 7.07483 21.1857 7.07483 21.4283C7.07483 21.8756 7.41578 22.1758 7.71612 22.359C8.04496 22.5596 8.49246 22.7251 9.00814 22.8582C9.9497 23.1011 11.1986 23.2562 12.5743 23.2829V26.6755C12.5743 26.9182 12.7649 27.1149 13 27.1149C13.2351 27.1149 13.4257 26.9182 13.4257 26.6755V23.2829C14.8018 23.2563 16.051 23.1012 16.9927 22.8582C17.5083 22.7251 17.9558 22.5596 18.2847 22.359C18.585 22.1758 18.9259 21.8755 18.9259 21.4283C18.9259 21.1857 18.7354 20.989 18.5003 20.989C18.2705 20.989 18.0833 21.1769 18.0749 21.4119C18.0686 21.424 18.0314 21.4928 17.8515 21.6025C17.6237 21.7415 17.2658 21.8819 16.7862 22.0056C15.9249 22.2279 14.748 22.3774 13.4257 22.404V19.0231C14.2964 18.9979 15.0881 18.896 15.6966 18.739C16.0464 18.6487 16.3597 18.5342 16.5958 18.3902C16.8033 18.2635 17.093 18.0255 17.093 17.6436C17.093 17.401 16.9024 17.2042 16.6673 17.2042C16.4554 17.2042 16.2796 17.3641 16.247 17.5734C16.2325 17.5865 16.2064 17.6069 16.1626 17.6337C16.0276 17.716 15.8039 17.8055 15.4901 17.8864C14.9598 18.0233 14.2401 18.1189 13.4257 18.1439V15.8372ZM9.73793 17.556C9.73808 17.556 9.73925 17.5574 9.74099 17.5601C9.73864 17.5574 9.73777 17.556 9.73793 17.556ZM16.2634 17.556C16.2636 17.556 16.2627 17.5574 16.2604 17.5601C16.2621 17.5574 16.2633 17.556 16.2634 17.556ZM4.64525 17.8068C4.73256 17.5815 4.62639 17.3258 4.40811 17.2357C4.18983 17.1455 3.9421 17.2551 3.85479 17.4804L2.10479 21.9964C2.01747 22.2217 2.12364 22.4774 2.34192 22.5675C2.5602 22.6577 2.80793 22.5481 2.89525 22.3227L4.64525 17.8068ZM22.1452 17.4804C22.0579 17.2551 21.8102 17.1455 21.5919 17.2357C21.3736 17.3258 21.2675 17.5815 21.3548 17.8068L23.1048 22.3227C23.1921 22.5481 23.4398 22.6577 23.6581 22.5675C23.8764 22.4774 23.9826 22.2217 23.8952 21.9964L22.1452 17.4804ZM2.05069 25.7723C2.05069 25.5296 1.86011 25.3329 1.62502 25.3329C1.38992 25.3329 1.19934 25.5296 1.19934 25.7723V29.3851C1.19934 29.6277 1.38992 29.8245 1.62502 29.8245C1.86011 29.8245 2.05069 29.6277 2.05069 29.3851V25.7723ZM24.8007 25.7723C24.8007 25.5296 24.6101 25.3329 24.375 25.3329C24.1399 25.3329 23.9493 25.5296 23.9493 25.7723V29.3851C23.9493 29.6277 24.1399 29.8245 24.375 29.8245C24.6101 29.8245 24.8007 29.6277 24.8007 29.3851V25.7723ZM8.8426 26.1571C8.84147 25.9154 8.65132 25.7199 8.41692 25.7199C8.18183 25.7199 7.99125 25.9166 7.99125 26.1592C7.99125 26.5682 8.25713 26.8697 8.53089 27.0701C8.81572 27.2786 9.20027 27.4484 9.63713 27.5837C10.5163 27.8559 11.7053 28.0179 13.0004 28.0179C14.2955 28.0179 15.4845 27.8559 16.3635 27.5836C16.8003 27.4484 17.1848 27.2786 17.4696 27.07C17.7433 26.8696 18.0091 26.5682 18.0091 26.1592C18.0091 25.9166 17.8185 25.7199 17.5834 25.7199C17.349 25.7199 17.1589 25.9154 17.1578 26.1571C17.1567 26.1624 17.142 26.2325 16.977 26.3533C16.798 26.4843 16.5114 26.6204 16.1188 26.7419C15.3392 26.9834 14.2366 27.1391 13.0004 27.1391C11.7643 27.1391 10.6615 26.9834 9.88176 26.7419C9.48916 26.6204 9.20245 26.4843 9.02339 26.3533C8.85843 26.2325 8.84362 26.1624 8.8426 26.1571ZM9.92569 31.1914C9.92569 30.9488 9.73511 30.7521 9.50002 30.7521C9.26492 30.7521 9.07434 30.9488 9.07434 31.1914V37.5138C9.07434 37.7564 9.26492 37.9531 9.50002 37.9531C9.73511 37.9531 9.92569 37.7564 9.92569 37.5138V31.1914ZM16.9257 31.1914C16.9257 30.9488 16.7351 30.7521 16.5 30.7521C16.2649 30.7521 16.0743 30.9488 16.0743 31.1914V37.5138C16.0743 37.7564 16.2649 37.9531 16.5 37.9531C16.7351 37.9531 16.9257 37.7564 16.9257 37.5138V31.1914ZM4.68752 40.6871C4.45242 40.6871 4.26184 40.8838 4.26184 41.1265C4.26184 41.3692 4.45242 41.5659 4.68752 41.5659H5.12502C5.36011 41.5659 5.55069 41.3692 5.55069 41.1265C5.55069 40.8838 5.36011 40.6871 5.12502 40.6871H4.68752ZM8.62502 40.6871C8.38992 40.6871 8.19934 40.8838 8.19934 41.1265C8.19934 41.3692 8.38992 41.5659 8.62502 41.5659H9.50002C9.73511 41.5659 9.92569 41.3692 9.92569 41.1265C9.92569 40.8838 9.73511 40.6871 9.50002 40.6871H8.62502ZM16.5 40.6871C16.2649 40.6871 16.0743 40.8838 16.0743 41.1265C16.0743 41.3692 16.2649 41.5659 16.5 41.5659H17.375C17.6101 41.5659 17.8007 41.3692 17.8007 41.1265C17.8007 40.8838 17.6101 40.6871 17.375 40.6871H16.5ZM20.875 40.6871C20.6399 40.6871 20.4493 40.8838 20.4493 41.1265C20.4493 41.3692 20.6399 41.5659 20.875 41.5659H21.3125C21.5476 41.5659 21.7382 41.3692 21.7382 41.1265C21.7382 40.8838 21.5476 40.6871 21.3125 40.6871H20.875Z" stroke="#F3FDFF" stroke-linecap="round" stroke-linejoin="round"/>
</svg>
