<svg width="29" height="42" viewBox="0 0 29 42" fill="none" xmlns="http://www.w3.org/2000/svg">
<path d="M9.43588 18.3648L12.8633 17.2614C14.5553 16.7168 16.0817 15.7404 17.3042 14.4287M17.3042 14.4287C17.5008 14.2178 17.6894 13.9983 17.8697 13.7705L21.8793 8.70293M17.3042 14.4287L16.8429 14.0451C16.0708 13.4076 15.0607 12.9921 15.0023 12.9683L14.9967 12.9662C12.7016 12.1389 9.24012 12.0893 6.39776 13.8301M24.7787 5.03834L21.8793 8.70293M21.8793 8.70293L21.5324 8.11369C20.506 6.16897 17.9314 5.82653 16.935 5.6815C16.8494 5.66903 16.7873 5.59342 16.7873 5.50411V0.937937M28.0251 9.13875C28.0251 9.13875 27.2234 10.4617 22.8745 17.1953C19.3745 22.6144 13.2495 24.4208 13.2495 24.4208M11.7935 0.937937V7.07353C11.7935 7.08183 11.787 7.08857 11.779 7.08857C8.79877 7.08857 6.38293 9.58226 6.38293 12.6584V13.2392L6.39776 13.8301M6.39776 13.8301C5.72196 14.244 5.08116 14.7591 4.49934 15.389C1.56541 18.5655 1.07693 22.2405 1.81921 25.8348M24.6245 14.4858C26.3824 15.5034 27.7855 17.3736 27.1069 23.2514C26.5796 27.8182 25.1714 32.7031 23.2093 36.1355M23.2093 36.1355C21.6481 38.8666 19.7362 40.6782 17.6385 40.6782C12.9042 40.6782 5.36916 35.6978 2.74948 28.9368C2.35519 27.9192 2.03513 26.8804 1.81921 25.8348M23.2093 36.1355L22.504 35.3577C20.3449 33.0528 17.3443 32.907 14.8133 32.0248M11.4995 29.7413C12.3699 30.9422 13.5314 31.578 14.8133 32.0248M14.8133 32.0248C14.8133 32.2032 14.7975 32.3812 14.7443 32.5508C14.5713 33.1019 14.0251 34.3976 12.5836 35.0515M7.03661 23.55C6.53632 25.4772 4.61713 26.621 2.75 26.1045L1.81921 25.8348" stroke="#FAFBFC" stroke-width="1.5" stroke-linecap="round"/>
</svg>
