<svg width="40" height="38" viewBox="0 0 40 38" fill="none" xmlns="http://www.w3.org/2000/svg">
<path d="M17.3748 0.776527V13.2711C17.3748 14.4647 16.7131 15.5511 15.6755 16.0698M15.6755 16.0698L15.5288 13.0633C15.4668 11.792 15.0032 10.4677 13.8408 10.0425C11.8359 9.30914 8.57449 9.80313 4.76107 14.8956C1.2166 19.6289 0.533484 27.0741 0.802532 32.6807C0.95732 35.9064 4.12598 37.6951 7.06071 36.5753L12.883 34.3538C15.0352 33.5326 16.4215 31.3639 16.3061 28.9984L15.9961 22.6436M15.6755 16.0698L15.9961 22.6436M22.6252 0.776527V13.2711C22.6252 14.4647 23.2868 15.5511 24.3246 16.0698M24.3246 16.0698L24.4712 13.0633C24.5332 11.792 24.9968 10.4677 26.1591 10.0425C28.1641 9.30914 31.4256 9.80313 35.239 14.8956C38.7834 19.6289 39.4665 27.0741 39.1975 32.6807C39.0426 35.9064 35.8741 37.6951 32.9393 36.5753L27.1171 34.3538C24.9647 33.5326 23.5786 31.3639 23.6939 28.9984L24.0038 22.644M24.3246 16.0698L24.0038 22.644M15.9961 22.6436L19.0956 21.0441C19.6647 20.7503 20.3344 20.7503 20.9037 21.0441L24.0038 22.644" stroke="#FAFBFC" stroke-width="1.5" stroke-linecap="round"/>
</svg>
