<svg width="42" height="36" viewBox="0 0 42 36" fill="none" xmlns="http://www.w3.org/2000/svg">
<path d="M18.0318 35.0174C18.3011 35.7121 19.0648 36.0501 19.7379 35.7721C20.4109 35.4942 20.7383 34.7059 20.4692 34.0112L18.0318 35.0174ZM21.5307 34.0112C21.2616 34.7059 21.589 35.4944 22.2622 35.7722C22.9353 36.0499 23.699 35.7119 23.9681 35.0172L21.5307 34.0112ZM5.25488 19.1594L6.35659 18.4231L6.35398 18.4189L5.25488 19.1594ZM36.7451 19.1596L35.6459 18.4191L35.6378 18.4321L36.7451 19.1596ZM15.3147 9.89518V5.54891H12.6897V9.89518H15.3147ZM26.6852 5.54891V9.89496H29.3102V5.54891H26.6852ZM20.4692 34.0112L19.369 31.1718L16.9317 32.1779L18.0318 35.0174L20.4692 34.0112ZM18.8438 23.9257L18.9472 23.4719L16.392 22.8512L16.2885 23.3052L18.8438 23.9257ZM23.0524 23.4716L23.156 23.926L25.7111 23.3057L25.6075 22.8512L23.0524 23.4716ZM22.6306 31.1714L21.5307 34.0112L23.9681 35.0172L25.068 32.1774L22.6306 31.1714ZM23.156 23.926C23.7058 26.3395 23.5224 28.8694 22.6306 31.1714L25.068 32.1774C26.1598 29.3585 26.3845 26.261 25.7111 23.3057L23.156 23.926ZM19.369 31.1718C18.477 28.8695 18.2936 26.3394 18.8438 23.9257L16.2885 23.3052C15.6149 26.2608 15.8394 29.3587 16.9317 32.1779L19.369 31.1718ZM26.6852 9.89496C26.6852 12.3587 25.9005 14.754 24.4522 16.7117L26.5384 18.3563C28.3363 15.9261 29.3102 12.9529 29.3102 9.89496H26.6852ZM15.4614 18.3561C16.4076 19.635 16.7491 21.2846 16.392 22.8512L18.9472 23.4719C19.4843 21.1159 18.9707 18.6352 17.5476 16.7116L15.4614 18.3561ZM24.4522 16.7117C23.0293 18.6352 22.5156 21.1155 23.0524 23.4716L25.6075 22.8512C25.2507 21.2846 25.5923 19.6352 26.5384 18.3563L24.4522 16.7117ZM27.0483 6.24C26.7765 6.04646 26.6852 5.75757 26.6852 5.54891H29.3102C29.3102 5.00297 29.0794 4.39437 28.5386 4.00941L27.0483 6.24ZM13.4613 4.00941C12.9205 4.39439 12.6897 5.00299 12.6897 5.54891H15.3147C15.3147 5.75755 15.2235 6.04646 14.9516 6.24L13.4613 4.00941ZM7.93254 8.37571C7.80227 8.51023 7.67395 8.51054 7.70698 8.50944C7.75904 8.50768 7.90322 8.52121 8.16116 8.61036C8.67571 8.7882 9.34235 9.1589 10.0643 9.64146C11.4884 10.5933 12.8364 11.7805 13.096 12.0126L14.8145 9.96442C14.5325 9.71232 13.0731 8.42445 11.4911 7.36707C10.71 6.84502 9.82397 6.32764 8.99459 6.04099C8.58054 5.89789 8.10496 5.7851 7.62172 5.8013C7.11943 5.81815 6.54031 5.98069 6.07601 6.46014L7.93254 8.37571ZM6.35398 18.4189C5.04472 16.3483 3.38754 12.2703 3.10418 8.79968C2.96203 7.05857 3.18421 5.68788 3.74685 4.79313C4.24781 3.99644 5.16076 3.35357 7.00428 3.35355L7.00427 0.64399C4.47436 0.644008 2.63089 1.591 1.54498 3.31793C0.520755 4.94679 0.325672 7.03341 0.488458 9.02723C0.814982 13.0265 2.65651 17.5288 4.15576 19.8998L6.35398 18.4189ZM10.8987 21.1003L11.2422 22.6861L13.804 22.0949L13.4605 20.5091L10.8987 21.1003ZM7.79555 24.4145L6.80123 23.1549L4.76626 24.8666L5.76058 26.1262L7.79555 24.4145ZM11.2422 22.6861C11.4416 23.6065 11.0019 24.5472 10.1808 24.9589L11.3275 27.3963C13.2439 26.4356 14.2688 24.2409 13.804 22.0949L11.2422 22.6861ZM5.76058 26.1262C7.10636 27.8309 9.41097 28.3569 11.3275 27.3963L10.1808 24.9589C9.35977 25.3704 8.37235 25.1452 7.79555 24.4145L5.76058 26.1262ZM35.924 6.46041C35.4319 5.95224 34.8139 5.80162 34.2935 5.80002C33.7905 5.79846 33.2934 5.93134 32.859 6.09391C31.9866 6.42053 31.0514 6.99 30.2377 7.5515C29.4082 8.1239 28.6335 8.73843 28.0705 9.20529C27.7877 9.43983 27.5555 9.63961 27.3927 9.78167C27.3113 9.85275 27.2473 9.9095 27.2028 9.94908C27.1806 9.96888 27.1635 9.9844 27.1514 9.99527C27.1453 10.0007 27.1405 10.005 27.1372 10.0081C27.1355 10.0096 27.1341 10.0108 27.133 10.0118C27.1325 10.0122 27.1334 10.0115 27.133 10.0118C27.1328 10.0119 27.1314 10.0133 27.1313 10.0133C27.1311 10.0135 27.1309 10.0136 27.9977 11.0309C28.8645 12.0483 28.8645 12.0484 28.8643 12.0484C28.8646 12.0481 28.8655 12.0474 28.8666 12.0465C28.8685 12.0447 28.8718 12.0417 28.8764 12.0376C28.8855 12.0294 28.8998 12.0166 28.9187 11.9996C28.9569 11.9656 29.0143 11.9149 29.0883 11.8501C29.2367 11.7206 29.4518 11.5356 29.7146 11.3175C30.2433 10.8791 30.9531 10.3171 31.6967 9.80405C32.456 9.28009 33.1821 8.85527 33.754 8.64118C34.0418 8.53341 34.2128 8.50935 34.2856 8.50956C34.3409 8.50974 34.2065 8.51961 34.0674 8.37598L35.924 6.46041ZM28.5395 20.5095L28.196 22.0951L30.7576 22.6863L31.1011 21.1007L28.5395 20.5095ZM36.2393 26.1264L37.2337 24.8668L35.1988 23.1553L34.2044 24.4148L36.2393 26.1264ZM28.196 22.0951C27.7312 24.2411 28.7561 26.4358 30.6724 27.3964L31.8192 24.9591C30.9981 24.5474 30.5583 23.6067 30.7576 22.6863L28.196 22.0951ZM34.2044 24.4148C33.6276 25.1455 32.6401 25.3706 31.8192 24.9591L30.6724 27.3964C32.589 28.3571 34.8936 27.8312 36.2393 26.1264L34.2044 24.4148ZM37.8442 19.9002C38.7131 18.5259 39.6677 16.4879 40.3891 14.282C41.1078 12.0845 41.6332 9.60565 41.5548 7.36918L38.9313 7.46721C38.9938 9.24817 38.5684 11.3777 37.902 13.4153C37.2384 15.4446 36.3734 17.2686 35.6459 18.4191L37.8442 19.9002ZM41.5548 7.36918C41.4953 5.67502 41.0826 3.96823 39.9819 2.67183C38.8475 1.33594 37.1624 0.64426 34.9956 0.644242V3.35381C36.6038 3.35382 37.4888 3.84664 38.0079 4.45777C38.5602 5.10839 38.8839 6.11118 38.9313 7.46721L41.5548 7.36918ZM21.6881 14.2358L21.329 13.7412L19.2286 15.3665L19.5879 15.8611L21.6881 14.2358ZM20.671 13.7412L20.3119 14.2358L22.412 15.8611L22.7713 15.3665L20.671 13.7412ZM18.7563 9.62056H23.2435V6.91099H18.7563V9.62056ZM22.3116 8.6588C22.3116 10.4916 21.736 12.275 20.671 13.7412L22.7713 15.3665C24.1769 13.4313 24.9366 11.0777 24.9366 8.6588H22.3116ZM21.329 13.7412C20.2639 12.275 19.6882 10.4916 19.6882 8.65877L17.0631 8.65893C17.0632 11.0778 17.823 13.4313 19.2286 15.3665L21.329 13.7412ZM19.5879 15.8611C20.2938 16.8331 21.7061 16.8331 22.412 15.8611L20.3119 14.2358C20.6557 13.7621 21.3442 13.7621 21.6881 14.2358L19.5879 15.8611ZM24.9366 8.6588C24.9366 7.69391 24.179 6.91099 23.2435 6.91099V9.62056C22.7284 9.62056 22.3116 9.18955 22.3116 8.6588H24.9366ZM19.6882 8.65877C19.6882 9.18954 19.2713 9.62056 18.7563 9.62056V6.91099C17.8207 6.91099 17.063 7.69398 17.0631 8.65893L19.6882 8.65877ZM35.5535 17.0167C34.4008 16.4388 33.1521 16.366 32.0306 16.6957L32.7496 19.3015C33.2773 19.1465 33.8593 19.1796 34.4067 19.454L35.5535 17.0167ZM32.0306 16.6957C30.3632 17.1859 28.9586 18.5741 28.5395 20.5095L31.1011 21.1007C31.2982 20.191 31.953 19.5358 32.7496 19.3015L32.0306 16.6957ZM33.5387 18.6541C33.9377 17.9092 35.0971 15.6756 35.9208 13.3551C36.33 12.2019 36.6833 10.9539 36.7949 9.82083C36.8992 8.7626 36.8334 7.39953 35.924 6.46041L34.0674 8.37598C34.0956 8.4051 34.2702 8.66683 34.1834 9.54666C34.1041 10.3516 33.835 11.355 33.4559 12.4229C32.7029 14.5448 31.6218 16.6332 31.2415 17.3431L33.5387 18.6541ZM34.4067 19.454C34.8209 19.6617 35.1396 19.969 35.3606 20.3297L37.5793 18.8816C37.1043 18.1064 36.4192 17.4507 35.5535 17.0167L34.4067 19.454ZM35.3606 20.3297C35.8804 21.1782 35.8624 22.3146 35.1988 23.1553L37.2337 24.8668C38.6489 23.074 38.6687 20.6597 37.5793 18.8816L35.3606 20.3297ZM35.6378 18.4321L35.3627 18.8781L37.5772 20.3332L37.8523 19.8872L35.6378 18.4321ZM34.9956 0.644242C33.359 0.644188 31.6764 1.27875 30.3107 1.96478C28.9192 2.66375 27.7186 3.48782 27.0121 4.00798L28.5362 6.21402C29.1772 5.7421 30.2471 5.01014 31.4594 4.40112C32.6975 3.77915 33.9517 3.35377 34.9956 3.35381V0.644242ZM21 4.8506C24.8248 4.8506 26.6189 5.93808 27.0354 6.23084L28.5127 3.99117C27.6529 3.38683 25.3422 2.14104 21 2.14104V4.8506ZM27.0354 6.23084C27.0397 6.23394 27.0441 6.237 27.0483 6.24L28.5386 4.00941C28.5302 4.00343 28.5216 3.99734 28.5127 3.99117L27.0354 6.23084ZM7.00428 3.35355C8.04816 3.3535 9.30249 3.77894 10.5406 4.40094C11.753 5.01 12.8229 5.742 13.4639 6.21388L14.9881 4.00788C14.2816 3.48773 13.0808 2.66363 11.6894 1.96459C10.3237 1.27853 8.64095 0.643917 7.00427 0.64399L7.00428 3.35355ZM14.9516 6.24C14.9558 6.237 14.9602 6.23391 14.9647 6.23075L13.4874 3.991C13.4785 3.99722 13.4699 4.00336 13.4613 4.00941L14.9516 6.24ZM14.9647 6.23075C15.3814 5.93788 17.1756 4.8506 21 4.8506V2.14104C16.658 2.14104 14.3474 3.38659 13.4874 3.991L14.9647 6.23075ZM17.5476 16.7116C16.306 15.0333 15.5521 13.0334 15.3622 10.9446L12.7487 11.1977C12.9844 13.7904 13.9201 16.2728 15.4614 18.3561L17.5476 16.7116ZM15.3622 10.9446C15.3306 10.5969 15.3147 10.2468 15.3147 9.89518H12.6897C12.6897 10.3315 12.7095 10.7661 12.7487 11.1977L15.3622 10.9446ZM6.44645 17.0165C5.58258 17.4495 4.89856 18.1034 4.42382 18.8761L6.64076 20.327C6.86169 19.9674 7.17991 19.661 7.59316 19.4538L6.44645 17.0165ZM4.42382 18.8761C3.33119 20.6549 3.3496 23.072 4.76626 24.8666L6.80123 23.1549C6.13698 22.3135 6.11943 21.1758 6.64076 20.327L4.42382 18.8761ZM4.15315 19.8957L4.43058 20.3379L6.63402 18.8653L6.35659 18.4231L4.15315 19.8957ZM7.59316 19.4538C8.14059 19.1794 8.72263 19.1462 9.25029 19.3014L9.9694 16.6955C8.84775 16.3656 7.59923 16.4386 6.44645 17.0165L7.59316 19.4538ZM9.25029 19.3014C10.0469 19.5355 10.7017 20.1906 10.8987 21.1003L13.4605 20.5091C13.0413 18.5739 11.6367 17.1857 9.9694 16.6955L9.25029 19.3014ZM10.7585 17.3429C10.3782 16.633 9.29708 14.5445 8.54399 12.4227C8.16492 11.3547 7.89575 10.3513 7.81644 9.54639C7.72975 8.66655 7.90434 8.40483 7.93254 8.37571L6.07601 6.46014C5.16657 7.39925 5.10063 8.76235 5.20492 9.82058C5.31657 10.9537 5.66987 12.2016 6.0792 13.3548C6.90287 15.6754 8.06219 17.909 8.46123 18.6539L10.7585 17.3429ZM13.096 12.0126C13.1557 12.066 13.2144 12.1144 13.2782 12.1628L14.8328 9.9795C14.8255 9.97399 14.8215 9.97065 14.8145 9.96442L13.096 12.0126Z" fill="#FAFBFC"/>
</svg>
