<svg width="168" height="100" viewBox="0 0 168 100" fill="none" xmlns="http://www.w3.org/2000/svg">
<g style="mix-blend-mode:plus-darker">
<rect y="3" width="168" height="85" fill="#BBE1EB"/>
</g>
<g filter="url(#filter0_d_38_4652)">
<rect x="12" width="40" height="92" fill="#4AABD0"/>
</g>
<path d="M63.0352 42.3008C63.0039 41.9857 62.8698 41.7409 62.6328 41.5664C62.3958 41.3919 62.0742 41.3047 61.668 41.3047C61.3919 41.3047 61.1589 41.3437 60.9688 41.4219C60.7786 41.4974 60.6328 41.6029 60.5313 41.7383C60.4323 41.8737 60.3828 42.0273 60.3828 42.1992C60.3776 42.3424 60.4076 42.4674 60.4727 42.5742C60.5404 42.681 60.6328 42.7734 60.75 42.8516C60.8672 42.9271 61.0026 42.9935 61.1562 43.0508C61.3099 43.1055 61.474 43.1523 61.6484 43.1914L62.3672 43.3633C62.7161 43.4414 63.0365 43.5456 63.3281 43.6758C63.6198 43.806 63.8724 43.9661 64.0859 44.1562C64.2995 44.3464 64.4648 44.5703 64.582 44.8281C64.7018 45.0859 64.763 45.3815 64.7656 45.7148C64.763 46.2044 64.638 46.6289 64.3906 46.9883C64.1458 47.3451 63.7917 47.6224 63.3281 47.8203C62.8672 48.0156 62.3112 48.1133 61.6602 48.1133C61.0143 48.1133 60.4518 48.0143 59.9727 47.8164C59.4961 47.6185 59.1237 47.3255 58.8555 46.9375C58.5898 46.5469 58.4505 46.0638 58.4375 45.4883H60.0742C60.0924 45.7565 60.1693 45.9805 60.3047 46.1602C60.4427 46.3372 60.6263 46.4714 60.8555 46.5625C61.0872 46.651 61.349 46.6953 61.6406 46.6953C61.9271 46.6953 62.1758 46.6536 62.3867 46.5703C62.6003 46.487 62.7656 46.3711 62.8828 46.2227C63 46.0742 63.0586 45.9036 63.0586 45.7109C63.0586 45.5312 63.0052 45.3802 62.8984 45.2578C62.7943 45.1354 62.6406 45.0312 62.4375 44.9453C62.237 44.8594 61.9909 44.7812 61.6992 44.7109L60.8281 44.4922C60.1536 44.3281 59.6211 44.0716 59.2305 43.7227C58.8398 43.3737 58.6458 42.9036 58.6484 42.3125C58.6458 41.8281 58.7747 41.4049 59.0352 41.043C59.2982 40.681 59.6589 40.3984 60.1172 40.1953C60.5755 39.9922 61.0964 39.8906 61.6797 39.8906C62.2734 39.8906 62.7917 39.9922 63.2344 40.1953C63.6797 40.3984 64.026 40.681 64.2734 41.043C64.5208 41.4049 64.6484 41.8242 64.6562 42.3008H63.0352ZM68.583 48.1172C67.9684 48.1172 67.4398 47.987 66.9971 47.7266C66.557 47.4635 66.2184 47.099 65.9814 46.6328C65.7471 46.1667 65.6299 45.6302 65.6299 45.0234C65.6299 44.4089 65.7484 43.8698 65.9854 43.4062C66.2249 42.9401 66.5648 42.5768 67.0049 42.3164C67.445 42.0534 67.9684 41.9219 68.5752 41.9219C69.0986 41.9219 69.557 42.0169 69.9502 42.207C70.3434 42.3971 70.6546 42.6641 70.8838 43.0078C71.113 43.3516 71.2393 43.7552 71.2627 44.2188H69.6924C69.6481 43.9193 69.5309 43.6784 69.3408 43.4961C69.1533 43.3112 68.9072 43.2187 68.6025 43.2187C68.3447 43.2187 68.1195 43.2891 67.9268 43.4297C67.7367 43.5677 67.5882 43.7695 67.4814 44.0352C67.3747 44.3008 67.3213 44.6224 67.3213 45C67.3213 45.3828 67.3734 45.7083 67.4775 45.9766C67.5843 46.2448 67.734 46.4492 67.9268 46.5898C68.1195 46.7305 68.3447 46.8008 68.6025 46.8008C68.7926 46.8008 68.9632 46.7617 69.1143 46.6836C69.2679 46.6055 69.3942 46.4922 69.4932 46.3437C69.5947 46.1927 69.6611 46.0117 69.6924 45.8008H71.2627C71.2367 46.2591 71.1117 46.6628 70.8877 47.0117C70.6663 47.3581 70.3604 47.6289 69.9697 47.8242C69.5791 48.0195 69.1169 48.1172 68.583 48.1172ZM73.9922 44.5313V48H72.3281V40H73.9453V43.0586H74.0156C74.151 42.7044 74.3698 42.4271 74.6719 42.2266C74.974 42.0234 75.3529 41.9219 75.8086 41.9219C76.2253 41.9219 76.5885 42.013 76.8984 42.1953C77.2109 42.375 77.4531 42.6341 77.625 42.9727C77.7995 43.3086 77.8854 43.7109 77.8828 44.1797V48H76.2188V44.4766C76.2214 44.1068 76.1276 43.819 75.9375 43.6133C75.75 43.4076 75.487 43.3047 75.1484 43.3047C74.9219 43.3047 74.7214 43.3529 74.5469 43.4492C74.375 43.5456 74.2396 43.6862 74.1406 43.8711C74.0443 44.0534 73.9948 44.2734 73.9922 44.5313ZM81.9268 48.1172C81.3096 48.1172 80.7783 47.9922 80.333 47.7422C79.8903 47.4896 79.5492 47.1328 79.3096 46.6719C79.07 46.2083 78.9502 45.6602 78.9502 45.0273C78.9502 44.4102 79.07 43.8685 79.3096 43.4023C79.5492 42.9362 79.8864 42.5729 80.3213 42.3125C80.7588 42.0521 81.2718 41.9219 81.8604 41.9219C82.2562 41.9219 82.6247 41.9857 82.9658 42.1133C83.3096 42.2383 83.609 42.4271 83.8643 42.6797C84.1221 42.9323 84.3226 43.25 84.4658 43.6328C84.609 44.013 84.6807 44.4583 84.6807 44.9687V45.4258H79.6143V44.3945H83.1143C83.1143 44.1549 83.0622 43.9427 82.958 43.7578C82.8538 43.5729 82.7093 43.4284 82.5244 43.3242C82.3421 43.2174 82.1299 43.1641 81.8877 43.1641C81.6351 43.1641 81.4111 43.2227 81.2158 43.3398C81.0231 43.4544 80.8721 43.6094 80.7627 43.8047C80.6533 43.9974 80.5973 44.2122 80.5947 44.4492V45.4297C80.5947 45.7266 80.6494 45.9831 80.7588 46.1992C80.8708 46.4154 81.0283 46.582 81.2314 46.6992C81.4346 46.8164 81.6755 46.875 81.9541 46.875C82.139 46.875 82.3083 46.849 82.4619 46.7969C82.6156 46.7448 82.7471 46.6667 82.8564 46.5625C82.9658 46.4583 83.0492 46.3307 83.1064 46.1797L84.6455 46.2812C84.5674 46.651 84.4072 46.974 84.165 47.25C83.9255 47.5234 83.6156 47.737 83.2354 47.8906C82.8577 48.0417 82.4215 48.1172 81.9268 48.1172ZM87.9775 48.0977C87.5218 48.0977 87.109 47.9805 86.7393 47.7461C86.3721 47.5091 86.0804 47.1615 85.8643 46.7031C85.6507 46.2422 85.5439 45.6771 85.5439 45.0078C85.5439 44.3203 85.6546 43.7487 85.876 43.293C86.0973 42.8346 86.3916 42.4922 86.7588 42.2656C87.1286 42.0365 87.5335 41.9219 87.9736 41.9219C88.3096 41.9219 88.5895 41.9792 88.8135 42.0938C89.04 42.2057 89.2223 42.3464 89.3604 42.5156C89.501 42.6823 89.6077 42.8464 89.6807 43.0078H89.7314V40H91.3916V48H89.751V47.0391H89.6807C89.6025 47.2057 89.4919 47.3711 89.3486 47.5352C89.208 47.6966 89.0244 47.8307 88.7979 47.9375C88.5739 48.0443 88.3005 48.0977 87.9775 48.0977ZM88.5049 46.7734C88.7731 46.7734 88.9997 46.7005 89.1846 46.5547C89.3721 46.4062 89.5153 46.1992 89.6143 45.9336C89.7158 45.668 89.7666 45.3568 89.7666 45C89.7666 44.6432 89.7171 44.3333 89.6182 44.0703C89.5192 43.8073 89.376 43.6042 89.1885 43.4609C89.001 43.3177 88.7731 43.2461 88.5049 43.2461C88.2314 43.2461 88.001 43.3203 87.8135 43.4687C87.626 43.6172 87.484 43.8229 87.3877 44.0859C87.2913 44.349 87.2432 44.6536 87.2432 45C87.2432 45.349 87.2913 45.6576 87.3877 45.9258C87.4867 46.1914 87.6286 46.3997 87.8135 46.5508C88.001 46.6992 88.2314 46.7734 88.5049 46.7734ZM96.6074 45.4453V42H98.2715V48H96.6738V46.9102H96.6113C96.4759 47.2617 96.2507 47.5443 95.9355 47.7578C95.623 47.9714 95.2415 48.0781 94.791 48.0781C94.39 48.0781 94.0371 47.987 93.7324 47.8047C93.4277 47.6224 93.1895 47.3633 93.0176 47.0273C92.8483 46.6914 92.7624 46.2891 92.7598 45.8203V42H94.4238V45.5234C94.4264 45.8776 94.5215 46.1576 94.709 46.3633C94.8965 46.569 95.1478 46.6719 95.4629 46.6719C95.6634 46.6719 95.8509 46.6263 96.0254 46.5352C96.1999 46.4414 96.3405 46.3034 96.4473 46.1211C96.5566 45.9388 96.61 45.7135 96.6074 45.4453ZM101.267 40V48H99.6025V40H101.267ZM105.334 48.1172C104.717 48.1172 104.186 47.9922 103.74 47.7422C103.298 47.4896 102.956 47.1328 102.717 46.6719C102.477 46.2083 102.357 45.6602 102.357 45.0273C102.357 44.4102 102.477 43.8685 102.717 43.4023C102.956 42.9362 103.294 42.5729 103.729 42.3125C104.166 42.0521 104.679 41.9219 105.268 41.9219C105.663 41.9219 106.032 41.9857 106.373 42.1133C106.717 42.2383 107.016 42.4271 107.271 42.6797C107.529 42.9323 107.73 43.25 107.873 43.6328C108.016 44.013 108.088 44.4583 108.088 44.9687V45.4258H103.021V44.3945H106.521C106.521 44.1549 106.469 43.9427 106.365 43.7578C106.261 43.5729 106.117 43.4284 105.932 43.3242C105.749 43.2174 105.537 43.1641 105.295 43.1641C105.042 43.1641 104.818 43.2227 104.623 43.3398C104.43 43.4544 104.279 43.6094 104.17 43.8047C104.061 43.9974 104.005 44.2122 104.002 44.4492V45.4297C104.002 45.7266 104.057 45.9831 104.166 46.1992C104.278 46.4154 104.436 46.582 104.639 46.6992C104.842 46.8164 105.083 46.875 105.361 46.875C105.546 46.875 105.715 46.849 105.869 46.7969C106.023 46.7448 106.154 46.6667 106.264 46.5625C106.373 46.4583 106.456 46.3307 106.514 46.1797L108.053 46.2812C107.975 46.651 107.814 46.974 107.572 47.25C107.333 47.5234 107.023 47.737 106.643 47.8906C106.265 48.0417 105.829 48.1172 105.334 48.1172ZM114.587 48H111.751V40H114.61C115.415 40 116.108 40.1602 116.688 40.4805C117.269 40.7982 117.716 41.2552 118.028 41.8516C118.343 42.4479 118.501 43.1615 118.501 43.9922C118.501 44.8255 118.343 45.5417 118.028 46.1406C117.716 46.7396 117.267 47.1992 116.681 47.5195C116.097 47.8398 115.399 48 114.587 48ZM113.442 46.5508H114.517C115.017 46.5508 115.437 46.4622 115.778 46.2852C116.122 46.1055 116.38 45.8281 116.552 45.4531C116.726 45.0755 116.813 44.5885 116.813 43.9922C116.813 43.401 116.726 42.918 116.552 42.543C116.38 42.168 116.123 41.8919 115.782 41.7148C115.441 41.5378 115.021 41.4492 114.521 41.4492H113.442V46.5508ZM121.434 48.1133C121.051 48.1133 120.71 48.0469 120.41 47.9141C120.111 47.7786 119.874 47.5794 119.699 47.3164C119.527 47.0508 119.441 46.7201 119.441 46.3242C119.441 45.9909 119.503 45.7109 119.625 45.4844C119.747 45.2578 119.914 45.0755 120.125 44.9375C120.336 44.7995 120.576 44.6953 120.844 44.625C121.115 44.5547 121.398 44.5052 121.695 44.4766C122.044 44.4401 122.326 44.4062 122.539 44.375C122.753 44.3411 122.908 44.2917 123.004 44.2266C123.1 44.1615 123.148 44.0651 123.148 43.9375V43.9141C123.148 43.6667 123.07 43.4753 122.914 43.3398C122.76 43.2044 122.542 43.1367 122.258 43.1367C121.958 43.1367 121.72 43.2031 121.543 43.3359C121.366 43.4661 121.249 43.6302 121.191 43.8281L119.652 43.7031C119.73 43.3385 119.884 43.0234 120.113 42.7578C120.342 42.4896 120.638 42.2839 121 42.1406C121.365 41.9948 121.786 41.9219 122.266 41.9219C122.599 41.9219 122.918 41.9609 123.223 42.0391C123.53 42.1172 123.802 42.2383 124.039 42.4023C124.279 42.5664 124.467 42.7773 124.605 43.0352C124.743 43.2904 124.812 43.5964 124.812 43.9531V48H123.234V47.168H123.188C123.091 47.3555 122.962 47.5208 122.801 47.6641C122.639 47.8047 122.445 47.9154 122.219 47.9961C121.992 48.0742 121.73 48.1133 121.434 48.1133ZM121.91 46.9648C122.155 46.9648 122.371 46.9167 122.559 46.8203C122.746 46.7214 122.893 46.5885 123 46.4219C123.107 46.2552 123.16 46.0664 123.16 45.8555V45.2188C123.108 45.2526 123.036 45.2839 122.945 45.3125C122.857 45.3385 122.757 45.3633 122.645 45.3867C122.533 45.4076 122.421 45.4271 122.309 45.4453C122.197 45.4609 122.095 45.4753 122.004 45.4883C121.809 45.5169 121.638 45.5625 121.492 45.625C121.346 45.6875 121.233 45.7721 121.152 45.8789C121.072 45.9831 121.031 46.1133 121.031 46.2695C121.031 46.4961 121.113 46.6693 121.277 46.7891C121.444 46.9062 121.655 46.9648 121.91 46.9648ZM129.295 42V43.25H125.682V42H129.295ZM126.502 40.5625H128.166V46.1562C128.166 46.3099 128.189 46.4297 128.236 46.5156C128.283 46.599 128.348 46.6576 128.432 46.6914C128.518 46.7253 128.617 46.7422 128.729 46.7422C128.807 46.7422 128.885 46.7357 128.963 46.7227C129.041 46.707 129.101 46.6953 129.143 46.6875L129.404 47.9258C129.321 47.9518 129.204 47.9818 129.053 48.0156C128.902 48.0521 128.718 48.0742 128.502 48.082C128.101 48.0977 127.749 48.0443 127.447 47.9219C127.148 47.7995 126.915 47.6094 126.748 47.3516C126.581 47.0937 126.499 46.7682 126.502 46.375V40.5625ZM133.049 48.1172C132.432 48.1172 131.9 47.9922 131.455 47.7422C131.012 47.4896 130.671 47.1328 130.432 46.6719C130.192 46.2083 130.072 45.6602 130.072 45.0273C130.072 44.4102 130.192 43.8685 130.432 43.4023C130.671 42.9362 131.008 42.5729 131.443 42.3125C131.881 42.0521 132.394 41.9219 132.982 41.9219C133.378 41.9219 133.747 41.9857 134.088 42.1133C134.432 42.2383 134.731 42.4271 134.986 42.6797C135.244 42.9323 135.445 43.25 135.588 43.6328C135.731 44.013 135.803 44.4583 135.803 44.9687V45.4258H130.736V44.3945H134.236C134.236 44.1549 134.184 43.9427 134.08 43.7578C133.976 43.5729 133.831 43.4284 133.646 43.3242C133.464 43.2174 133.252 43.1641 133.01 43.1641C132.757 43.1641 132.533 43.2227 132.338 43.3398C132.145 43.4544 131.994 43.6094 131.885 43.8047C131.775 43.9974 131.719 44.2122 131.717 44.4492V45.4297C131.717 45.7266 131.771 45.9831 131.881 46.1992C131.993 46.4154 132.15 46.582 132.354 46.6992C132.557 46.8164 132.798 46.875 133.076 46.875C133.261 46.875 133.43 46.849 133.584 46.7969C133.738 46.7448 133.869 46.6667 133.979 46.5625C134.088 46.4583 134.171 46.3307 134.229 46.1797L135.768 46.2812C135.689 46.651 135.529 46.974 135.287 47.25C135.048 47.5234 134.738 47.737 134.357 47.8906C133.98 48.0417 133.544 48.1172 133.049 48.1172Z" fill="#01A0CA"/>
<rect x="19" y="28" width="30" height="30" rx="5" fill="#BBE1EB"/>
<g style="mix-blend-mode:plus-darker">
<rect x="21" y="31" width="26" height="25" rx="5" fill="#4AABD0"/>
</g>
<g style="mix-blend-mode:multiply">
<rect x="21" y="31" width="26" height="9" rx="4.5" fill="#01A0CA"/>
</g>
<defs>
<filter id="filter0_d_38_4652" x="8" y="0" width="48" height="100" filterUnits="userSpaceOnUse" color-interpolation-filters="sRGB">
<feFlood flood-opacity="0" result="BackgroundImageFix"/>
<feColorMatrix in="SourceAlpha" type="matrix" values="0 0 0 0 0 0 0 0 0 0 0 0 0 0 0 0 0 0 127 0" result="hardAlpha"/>
<feOffset dy="4"/>
<feGaussianBlur stdDeviation="2"/>
<feComposite in2="hardAlpha" operator="out"/>
<feColorMatrix type="matrix" values="0 0 0 0 0 0 0 0 0 0 0 0 0 0 0 0 0 0 0.25 0"/>
<feBlend mode="normal" in2="BackgroundImageFix" result="effect1_dropShadow_38_4652"/>
<feBlend mode="normal" in="SourceGraphic" in2="effect1_dropShadow_38_4652" result="shape"/>
</filter>
</defs>
</svg>
