<svg width="168" height="100" viewBox="0 0 168 100" fill="none" xmlns="http://www.w3.org/2000/svg">
<g style="mix-blend-mode:plus-darker">
<rect y="3" width="168" height="85" fill="#BBE1EB"/>
</g>
<g filter="url(#filter0_d_38_4657)">
<rect x="12" width="40" height="92" fill="#4AABD0"/>
</g>
<path d="M66.0352 42.3008C66.0039 41.9857 65.8698 41.7409 65.6328 41.5664C65.3958 41.3919 65.0742 41.3047 64.668 41.3047C64.3919 41.3047 64.1589 41.3437 63.9688 41.4219C63.7786 41.4974 63.6328 41.6029 63.5313 41.7383C63.4323 41.8737 63.3828 42.0273 63.3828 42.1992C63.3776 42.3424 63.4076 42.4674 63.4727 42.5742C63.5404 42.681 63.6328 42.7734 63.75 42.8516C63.8672 42.9271 64.0026 42.9935 64.1562 43.0508C64.3099 43.1055 64.474 43.1523 64.6484 43.1914L65.3672 43.3633C65.7161 43.4414 66.0365 43.5456 66.3281 43.6758C66.6198 43.806 66.8724 43.9661 67.0859 44.1562C67.2995 44.3464 67.4648 44.5703 67.582 44.8281C67.7018 45.0859 67.763 45.3815 67.7656 45.7148C67.763 46.2044 67.638 46.6289 67.3906 46.9883C67.1458 47.3451 66.7917 47.6224 66.3281 47.8203C65.8672 48.0156 65.3112 48.1133 64.6602 48.1133C64.0143 48.1133 63.4518 48.0143 62.9727 47.8164C62.4961 47.6185 62.1237 47.3255 61.8555 46.9375C61.5898 46.5469 61.4505 46.0638 61.4375 45.4883H63.0742C63.0924 45.7565 63.1693 45.9805 63.3047 46.1602C63.4427 46.3372 63.6263 46.4714 63.8555 46.5625C64.0872 46.651 64.349 46.6953 64.6406 46.6953C64.9271 46.6953 65.1758 46.6536 65.3867 46.5703C65.6003 46.487 65.7656 46.3711 65.8828 46.2227C66 46.0742 66.0586 45.9036 66.0586 45.7109C66.0586 45.5312 66.0052 45.3802 65.8984 45.2578C65.7943 45.1354 65.6406 45.0312 65.4375 44.9453C65.237 44.8594 64.9909 44.7812 64.6992 44.7109L63.8281 44.4922C63.1536 44.3281 62.6211 44.0716 62.2305 43.7227C61.8398 43.3737 61.6458 42.9036 61.6484 42.3125C61.6458 41.8281 61.7747 41.4049 62.0352 41.043C62.2982 40.681 62.6589 40.3984 63.1172 40.1953C63.5755 39.9922 64.0964 39.8906 64.6797 39.8906C65.2734 39.8906 65.7917 39.9922 66.2344 40.1953C66.6797 40.3984 67.026 40.681 67.2734 41.043C67.5208 41.4049 67.6484 41.8242 67.6562 42.3008H66.0352ZM71.583 48.1172C70.9684 48.1172 70.4398 47.987 69.9971 47.7266C69.557 47.4635 69.2184 47.099 68.9814 46.6328C68.7471 46.1667 68.6299 45.6302 68.6299 45.0234C68.6299 44.4089 68.7484 43.8698 68.9854 43.4062C69.2249 42.9401 69.5648 42.5768 70.0049 42.3164C70.445 42.0534 70.9684 41.9219 71.5752 41.9219C72.0986 41.9219 72.557 42.0169 72.9502 42.207C73.3434 42.3971 73.6546 42.6641 73.8838 43.0078C74.113 43.3516 74.2393 43.7552 74.2627 44.2188H72.6924C72.6481 43.9193 72.5309 43.6784 72.3408 43.4961C72.1533 43.3112 71.9072 43.2187 71.6025 43.2187C71.3447 43.2187 71.1195 43.2891 70.9268 43.4297C70.7367 43.5677 70.5882 43.7695 70.4814 44.0352C70.3747 44.3008 70.3213 44.6224 70.3213 45C70.3213 45.3828 70.3734 45.7083 70.4775 45.9766C70.5843 46.2448 70.734 46.4492 70.9268 46.5898C71.1195 46.7305 71.3447 46.8008 71.6025 46.8008C71.7926 46.8008 71.9632 46.7617 72.1143 46.6836C72.2679 46.6055 72.3942 46.4922 72.4932 46.3437C72.5947 46.1927 72.6611 46.0117 72.6924 45.8008H74.2627C74.2367 46.2591 74.1117 46.6628 73.8877 47.0117C73.6663 47.3581 73.3604 47.6289 72.9697 47.8242C72.5791 48.0195 72.1169 48.1172 71.583 48.1172ZM76.9922 44.5313V48H75.3281V40H76.9453V43.0586H77.0156C77.151 42.7044 77.3698 42.4271 77.6719 42.2266C77.974 42.0234 78.3529 41.9219 78.8086 41.9219C79.2253 41.9219 79.5885 42.013 79.8984 42.1953C80.2109 42.375 80.4531 42.6341 80.625 42.9727C80.7995 43.3086 80.8854 43.7109 80.8828 44.1797V48H79.2188V44.4766C79.2214 44.1068 79.1276 43.819 78.9375 43.6133C78.75 43.4076 78.487 43.3047 78.1484 43.3047C77.9219 43.3047 77.7214 43.3529 77.5469 43.4492C77.375 43.5456 77.2396 43.6862 77.1406 43.8711C77.0443 44.0534 76.9948 44.2734 76.9922 44.5313ZM84.9268 48.1172C84.3096 48.1172 83.7783 47.9922 83.333 47.7422C82.8903 47.4896 82.5492 47.1328 82.3096 46.6719C82.07 46.2083 81.9502 45.6602 81.9502 45.0273C81.9502 44.4102 82.07 43.8685 82.3096 43.4023C82.5492 42.9362 82.8864 42.5729 83.3213 42.3125C83.7588 42.0521 84.2718 41.9219 84.8604 41.9219C85.2562 41.9219 85.6247 41.9857 85.9658 42.1133C86.3096 42.2383 86.609 42.4271 86.8643 42.6797C87.1221 42.9323 87.3226 43.25 87.4658 43.6328C87.609 44.013 87.6807 44.4583 87.6807 44.9687V45.4258H82.6143V44.3945H86.1143C86.1143 44.1549 86.0622 43.9427 85.958 43.7578C85.8538 43.5729 85.7093 43.4284 85.5244 43.3242C85.3421 43.2174 85.1299 43.1641 84.8877 43.1641C84.6351 43.1641 84.4111 43.2227 84.2158 43.3398C84.0231 43.4544 83.8721 43.6094 83.7627 43.8047C83.6533 43.9974 83.5973 44.2122 83.5947 44.4492V45.4297C83.5947 45.7266 83.6494 45.9831 83.7588 46.1992C83.8708 46.4154 84.0283 46.582 84.2314 46.6992C84.4346 46.8164 84.6755 46.875 84.9541 46.875C85.139 46.875 85.3083 46.849 85.4619 46.7969C85.6156 46.7448 85.7471 46.6667 85.8564 46.5625C85.9658 46.4583 86.0492 46.3307 86.1064 46.1797L87.6455 46.2812C87.5674 46.651 87.4072 46.974 87.165 47.25C86.9255 47.5234 86.6156 47.737 86.2354 47.8906C85.8577 48.0417 85.4215 48.1172 84.9268 48.1172ZM90.9775 48.0977C90.5218 48.0977 90.109 47.9805 89.7393 47.7461C89.3721 47.5091 89.0804 47.1615 88.8643 46.7031C88.6507 46.2422 88.5439 45.6771 88.5439 45.0078C88.5439 44.3203 88.6546 43.7487 88.876 43.293C89.0973 42.8346 89.3916 42.4922 89.7588 42.2656C90.1286 42.0365 90.5335 41.9219 90.9736 41.9219C91.3096 41.9219 91.5895 41.9792 91.8135 42.0938C92.04 42.2057 92.2223 42.3464 92.3604 42.5156C92.501 42.6823 92.6077 42.8464 92.6807 43.0078H92.7314V40H94.3916V48H92.751V47.0391H92.6807C92.6025 47.2057 92.4919 47.3711 92.3486 47.5352C92.208 47.6966 92.0244 47.8307 91.7979 47.9375C91.5739 48.0443 91.3005 48.0977 90.9775 48.0977ZM91.5049 46.7734C91.7731 46.7734 91.9997 46.7005 92.1846 46.5547C92.3721 46.4062 92.5153 46.1992 92.6143 45.9336C92.7158 45.668 92.7666 45.3568 92.7666 45C92.7666 44.6432 92.7171 44.3333 92.6182 44.0703C92.5192 43.8073 92.376 43.6042 92.1885 43.4609C92.001 43.3177 91.7731 43.2461 91.5049 43.2461C91.2314 43.2461 91.001 43.3203 90.8135 43.4687C90.626 43.6172 90.484 43.8229 90.3877 44.0859C90.2913 44.349 90.2432 44.6536 90.2432 45C90.2432 45.349 90.2913 45.6576 90.3877 45.9258C90.4867 46.1914 90.6286 46.3997 90.8135 46.5508C91.001 46.6992 91.2314 46.7734 91.5049 46.7734ZM99.6074 45.4453V42H101.271V48H99.6738V46.9102H99.6113C99.4759 47.2617 99.2507 47.5443 98.9355 47.7578C98.623 47.9714 98.2415 48.0781 97.791 48.0781C97.39 48.0781 97.0371 47.987 96.7324 47.8047C96.4277 47.6224 96.1895 47.3633 96.0176 47.0273C95.8483 46.6914 95.7624 46.2891 95.7598 45.8203V42H97.4238V45.5234C97.4264 45.8776 97.5215 46.1576 97.709 46.3633C97.8965 46.569 98.1478 46.6719 98.4629 46.6719C98.6634 46.6719 98.8509 46.6263 99.0254 46.5352C99.1999 46.4414 99.3405 46.3034 99.4473 46.1211C99.5566 45.9388 99.61 45.7135 99.6074 45.4453ZM104.267 40V48H102.603V40H104.267ZM108.334 48.1172C107.717 48.1172 107.186 47.9922 106.74 47.7422C106.298 47.4896 105.956 47.1328 105.717 46.6719C105.477 46.2083 105.357 45.6602 105.357 45.0273C105.357 44.4102 105.477 43.8685 105.717 43.4023C105.956 42.9362 106.294 42.5729 106.729 42.3125C107.166 42.0521 107.679 41.9219 108.268 41.9219C108.663 41.9219 109.032 41.9857 109.373 42.1133C109.717 42.2383 110.016 42.4271 110.271 42.6797C110.529 42.9323 110.73 43.25 110.873 43.6328C111.016 44.013 111.088 44.4583 111.088 44.9687V45.4258H106.021V44.3945H109.521C109.521 44.1549 109.469 43.9427 109.365 43.7578C109.261 43.5729 109.117 43.4284 108.932 43.3242C108.749 43.2174 108.537 43.1641 108.295 43.1641C108.042 43.1641 107.818 43.2227 107.623 43.3398C107.43 43.4544 107.279 43.6094 107.17 43.8047C107.061 43.9974 107.005 44.2122 107.002 44.4492V45.4297C107.002 45.7266 107.057 45.9831 107.166 46.1992C107.278 46.4154 107.436 46.582 107.639 46.6992C107.842 46.8164 108.083 46.875 108.361 46.875C108.546 46.875 108.715 46.849 108.869 46.7969C109.023 46.7448 109.154 46.6667 109.264 46.5625C109.373 46.4583 109.456 46.3307 109.514 46.1797L111.053 46.2812C110.975 46.651 110.814 46.974 110.572 47.25C110.333 47.5234 110.023 47.737 109.643 47.8906C109.265 48.0417 108.829 48.1172 108.334 48.1172ZM114.446 41.3945V40H121.017V41.3945H118.567V48H116.896V41.3945H114.446ZM122.067 48V42H123.731V48H122.067ZM122.903 41.2266C122.656 41.2266 122.444 41.1445 122.267 40.9805C122.092 40.8138 122.005 40.6146 122.005 40.3828C122.005 40.1536 122.092 39.957 122.267 39.793C122.444 39.6263 122.656 39.543 122.903 39.543C123.151 39.543 123.362 39.6263 123.536 39.793C123.713 39.957 123.802 40.1536 123.802 40.3828C123.802 40.6146 123.713 40.8138 123.536 40.9805C123.362 41.1445 123.151 41.2266 122.903 41.2266ZM125.064 48V42H126.65V43.0586H126.721C126.846 42.707 127.054 42.4297 127.346 42.2266C127.637 42.0234 127.986 41.9219 128.393 41.9219C128.804 41.9219 129.154 42.0247 129.443 42.2305C129.732 42.4336 129.925 42.7096 130.021 43.0586H130.084C130.206 42.7148 130.428 42.4401 130.748 42.2344C131.071 42.026 131.452 41.9219 131.893 41.9219C132.452 41.9219 132.907 42.1003 133.256 42.457C133.607 42.8112 133.783 43.3138 133.783 43.9648V48H132.123V44.293C132.123 43.9596 132.035 43.7096 131.857 43.543C131.68 43.3763 131.459 43.293 131.193 43.293C130.891 43.293 130.656 43.3893 130.486 43.582C130.317 43.7721 130.232 44.0234 130.232 44.3359V48H128.619V44.2578C128.619 43.9635 128.535 43.7292 128.365 43.5547C128.199 43.3802 127.979 43.293 127.705 43.293C127.52 43.293 127.354 43.3398 127.205 43.4336C127.059 43.5247 126.943 43.6536 126.857 43.8203C126.771 43.9844 126.729 44.1771 126.729 44.3984V48H125.064ZM137.832 48.1172C137.215 48.1172 136.684 47.9922 136.238 47.7422C135.796 47.4896 135.454 47.1328 135.215 46.6719C134.975 46.2083 134.855 45.6602 134.855 45.0273C134.855 44.4102 134.975 43.8685 135.215 43.4023C135.454 42.9362 135.792 42.5729 136.227 42.3125C136.664 42.0521 137.177 41.9219 137.766 41.9219C138.161 41.9219 138.53 41.9857 138.871 42.1133C139.215 42.2383 139.514 42.4271 139.77 42.6797C140.027 42.9323 140.228 43.25 140.371 43.6328C140.514 44.013 140.586 44.4583 140.586 44.9687V45.4258H135.52V44.3945H139.02C139.02 44.1549 138.967 43.9427 138.863 43.7578C138.759 43.5729 138.615 43.4284 138.43 43.3242C138.247 43.2174 138.035 43.1641 137.793 43.1641C137.54 43.1641 137.316 43.2227 137.121 43.3398C136.928 43.4544 136.777 43.6094 136.668 43.8047C136.559 43.9974 136.503 44.2122 136.5 44.4492V45.4297C136.5 45.7266 136.555 45.9831 136.664 46.1992C136.776 46.4154 136.934 46.582 137.137 46.6992C137.34 46.8164 137.581 46.875 137.859 46.875C138.044 46.875 138.214 46.849 138.367 46.7969C138.521 46.7448 138.652 46.6667 138.762 46.5625C138.871 46.4583 138.954 46.3307 139.012 46.1797L140.551 46.2812C140.473 46.651 140.313 46.974 140.07 47.25C139.831 47.5234 139.521 47.737 139.141 47.8906C138.763 48.0417 138.327 48.1172 137.832 48.1172Z" fill="#01A0CA"/>
<rect x="17" y="28" width="30" height="30" rx="15" fill="#BBE1EB"/>
<g style="mix-blend-mode:plus-darker">
<path d="M32 32C32 32.2761 32.2239 32.5 32.5 32.5C32.7761 32.5 33 32.2761 33 32H32ZM32 28V32H33V28H32Z" fill="#4AABD0"/>
</g>
<g style="mix-blend-mode:plus-darker">
<path d="M38.567 31.4821C38.4289 31.7212 38.5109 32.027 38.75 32.1651C38.9891 32.3031 39.2949 32.2212 39.433 31.9821L38.567 31.4821ZM39.567 29.75L38.567 31.4821L39.433 31.9821L40.433 30.25L39.567 29.75Z" fill="#4AABD0"/>
</g>
<g style="mix-blend-mode:plus-darker">
<path d="M38.433 54.75C38.2949 54.5109 37.9891 54.4289 37.75 54.567C37.5109 54.7051 37.4289 55.0109 37.567 55.25L38.433 54.75ZM39.433 56.482L38.433 54.75L37.567 55.25L38.567 56.982L39.433 56.482Z" fill="#4AABD0"/>
</g>
<g style="mix-blend-mode:plus-darker">
<path d="M26.433 55.116C26.5711 54.8769 26.4891 54.5711 26.25 54.433C26.0109 54.2949 25.7051 54.3769 25.567 54.616L26.433 55.116ZM25.433 56.8481L26.433 55.116L25.567 54.616L24.567 56.3481L25.433 56.8481Z" fill="#4AABD0"/>
</g>
<g style="mix-blend-mode:plus-darker">
<path d="M24.567 31.9821C24.7051 32.2212 25.0109 32.3031 25.25 32.1651C25.4891 32.027 25.5711 31.7212 25.433 31.4821L24.567 31.9821ZM23.567 30.25L24.567 31.9821L25.433 31.4821L24.433 29.75L23.567 30.25Z" fill="#4AABD0"/>
</g>
<g style="mix-blend-mode:plus-darker">
<path d="M42.7499 35.567C42.5107 35.7051 42.4288 36.0109 42.5669 36.25C42.7049 36.4891 43.0107 36.5711 43.2499 36.433L42.7499 35.567ZM44.4819 34.567L42.7499 35.567L43.2499 36.433L44.9819 35.433L44.4819 34.567Z" fill="#4AABD0"/>
</g>
<g style="mix-blend-mode:plus-darker">
<path d="M21.7678 51.0607C21.963 50.8654 21.963 50.5488 21.7678 50.3536C21.5725 50.1583 21.2559 50.1583 21.0607 50.3536L21.7678 51.0607ZM20.3536 52.4749L21.7678 51.0607L21.0607 50.3536L19.6464 51.7678L20.3536 52.4749Z" fill="#4AABD0"/>
</g>
<g style="mix-blend-mode:plus-darker">
<path d="M43.433 50.75C43.2949 50.5109 42.9891 50.4289 42.75 50.567C42.5109 50.7051 42.4289 51.0109 42.567 51.25L43.433 50.75ZM44.433 52.482L43.433 50.75L42.567 51.25L43.567 52.982L44.433 52.482Z" fill="#4AABD0"/>
</g>
<g style="mix-blend-mode:plus-darker">
<path d="M20.0607 36.7678C20.2559 36.963 20.5725 36.963 20.7678 36.7678C20.963 36.5725 20.963 36.2559 20.7678 36.0607L20.0607 36.7678ZM18.6464 35.3536L20.0607 36.7678L20.7678 36.0607L19.3536 34.6464L18.6464 35.3536Z" fill="#4AABD0"/>
</g>
<g style="mix-blend-mode:plus-darker">
<path d="M32.5 54C32.5 53.7239 32.2761 53.5 32 53.5C31.7239 53.5 31.5 53.7239 31.5 54H32.5ZM31.5 58V58.5H32.5V58H31.5ZM31.5 54V58H32.5V54H31.5Z" fill="#4AABD0"/>
</g>
<g style="mix-blend-mode:plus-darker">
<path d="M43 42.5C42.7239 42.5 42.5 42.7239 42.5 43C42.5 43.2761 42.7239 43.5 43 43.5L43 42.5ZM47 42.5L43 42.5L43 43.5L47 43.5L47 42.5Z" fill="#4AABD0"/>
</g>
<g style="mix-blend-mode:plus-darker">
<path d="M21 43.5C21.2761 43.5 21.5 43.2761 21.5 43C21.5 42.7239 21.2761 42.5 21 42.5V43.5ZM17.5 42.5L17 42.5L17 43.5L17.5 43.5L17.5 42.5ZM21 42.5L17.5 42.5L17.5 43.5L21 43.5V42.5Z" fill="#4AABD0"/>
</g>
<path d="M35 51L33.0001 43" stroke="#4AABD0" stroke-linecap="round"/>
<path d="M38 48L33 43" stroke="#4AABD0" stroke-linecap="round"/>
<defs>
<filter id="filter0_d_38_4657" x="8" y="0" width="48" height="100" filterUnits="userSpaceOnUse" color-interpolation-filters="sRGB">
<feFlood flood-opacity="0" result="BackgroundImageFix"/>
<feColorMatrix in="SourceAlpha" type="matrix" values="0 0 0 0 0 0 0 0 0 0 0 0 0 0 0 0 0 0 127 0" result="hardAlpha"/>
<feOffset dy="4"/>
<feGaussianBlur stdDeviation="2"/>
<feComposite in2="hardAlpha" operator="out"/>
<feColorMatrix type="matrix" values="0 0 0 0 0 0 0 0 0 0 0 0 0 0 0 0 0 0 0.25 0"/>
<feBlend mode="normal" in2="BackgroundImageFix" result="effect1_dropShadow_38_4657"/>
<feBlend mode="normal" in="SourceGraphic" in2="effect1_dropShadow_38_4657" result="shape"/>
</filter>
</defs>
</svg>
