<svg width="183" height="201" viewBox="0 0 183 201" fill="none" xmlns="http://www.w3.org/2000/svg">
<g clip-path="url(#clip0_27_1440)" filter="url(#filter0_d_27_1440)">
<path d="M81.1242 97.4845C75.7639 97.6086 70.4499 96.4664 65.614 94.1507C68.023 103.29 70.4802 111.834 73.4064 120.396C76.1913 128.544 77.6766 131.774 81.092 140.184C84.5689 131.552 86.2536 128.406 88.8959 120.11C91.7739 111.073 94.1006 102.866 96.486 93.7535C91.7382 96.2098 86.4697 97.4894 81.1242 97.4845Z" fill="white"/>
<path d="M44.8067 63.0056C45.3204 57.8038 45.5622 52.5788 45.5309 47.3518C44.9682 30.2455 49.4286 17.8403 56.4617 11.0486C60.7013 6.95496 70.2549 1.37949 80.9886 1.37949C86.3345 1.29528 91.6397 2.32044 96.5694 4.39024L97.3741 4.85008L102.303 7.7384C103.727 8.79166 105.069 9.95105 106.318 11.2067C111.685 16.4298 115.414 25.8259 116.008 34.2408C116.181 36.6682 116.574 42.984 116.194 47.3552C116.385 61.6767 119.025 69.6922 120.39 73.6375C121.462 76.5082 122.022 79.5447 122.045 82.6089C122.094 87.9693 114.706 94.872 107.367 92.7826L53.1147 93.4724C46.1022 93.6414 41.5361 88.4798 41.5752 83.7205C41.7109 79.7138 42.2789 75.7335 43.2691 71.8488C44.0178 68.947 44.532 65.9898 44.8067 63.0056Z" fill="#957F6E"/>
<path d="M71.9155 96.4498C69.7356 95.9224 67.6219 95.1512 65.6147 94.1506C65.1376 92.3424 64.6622 90.5092 64.1886 88.651C65.31 88.1309 66.1297 87.7515 66.1831 87.7314C68.7697 86.7974 68.6662 85.1351 68.9921 83.2756C69.2575 81.8376 69.433 80.3843 69.5175 78.9244C66.3236 77.234 63.5087 74.9087 61.2457 72.0913C58.5782 68.8713 56.5742 65.1555 55.3489 61.1577C54.6836 61.2823 53.999 61.2579 53.3443 61.0864C52.6895 60.9149 52.0809 60.6004 51.5622 60.1656C49.3205 58.3303 48.3888 55.7707 47.8209 54.0975C47.0162 51.7346 46.9679 47.9162 48.1629 45.8435C48.5174 45.2301 49.0317 44.7244 49.651 44.3802C50.2702 44.036 50.9713 43.8664 51.6794 43.8893C52.605 43.8527 53.5179 44.1147 54.2832 44.6365C55.123 44.2485 55.7679 43.9467 55.7679 43.9467C57.5457 43.119 62.493 40.9728 63.2166 40.5468C65.3394 39.303 67.3905 37.9405 69.36 36.4658C77.3415 35.0018 89.2719 28.4515 92.5097 23.763C93.7167 27.5405 94.4772 30.9588 98.5317 36.4222C101.179 39.9899 104.579 42.231 106.579 43.7846L107.958 44.8561C108.764 44.1865 109.79 43.8407 110.837 43.8858C111.545 43.8629 112.246 44.0326 112.865 44.3768C113.485 44.7209 113.999 45.2267 114.353 45.8401C115.548 47.9128 115.498 51.7311 114.695 54.0941C114.128 55.7673 113.197 58.3268 110.954 60.1621C110.46 60.5731 109.886 60.8772 109.269 61.0553C108.652 61.2334 108.005 61.2816 107.368 61.1968L107.121 61.1554C106.696 62.3941 106.166 63.4959 105.986 64.0402C105.046 66.5906 99.6785 75.7982 92.9994 78.8193C93.0855 80.3141 93.2602 81.8026 93.5224 83.2768C93.8484 85.1362 93.7466 86.7985 96.332 87.7325C96.3797 87.7498 96.9948 88.0383 97.8598 88.4464C97.4 90.2559 96.9402 92.0205 96.4912 93.7535C89.3529 97.627 79.9218 98.419 71.9155 96.4498Z" fill="white"/>
<path d="M97.6149 89.3885C94.818 100.306 92.2257 109.654 88.8959 120.11C86.2519 128.408 84.5689 131.553 81.0937 140.188C77.6772 131.775 76.1942 128.546 73.4065 120.397C69.8192 109.9 66.9401 99.4301 63.9851 87.8636C62.495 88.6889 61.0511 89.595 59.6598 90.5778C53.2193 92.6527 47.1058 94.2202 41.6367 98.2598C39.1955 100.063 36.8475 102.086 35.1835 104.654C33.1671 107.766 32.1986 110.848 31.3422 114.477C30.3524 118.673 29.6218 122.555 28.6918 128.146C26.9631 138.285 25.8224 148.515 25.2753 158.786C25.0068 163.147 25.427 167.83 27.0634 171.866C28.6999 175.901 32.8079 179.712 36.8952 180.966C38.296 181.411 39.7583 181.632 41.228 181.621C52.5571 181.621 89.2626 181.603 114.444 181.592C114.668 177.62 115.013 171.556 115.082 170.01C115.216 167.053 115.358 164.262 115.507 161.56L116.111 162.71C120.173 169.188 128.462 172.015 135.356 170.604C138.317 170.033 141.063 168.652 143.287 166.616C145.512 164.579 147.129 161.966 147.959 159.066C150.419 150.405 152.37 136.983 153.189 129.373C153.196 129.307 153.191 129.24 153.172 129.177C153.154 129.113 153.123 129.054 153.082 129.002C153.041 128.951 152.99 128.908 152.932 128.876C152.874 128.844 152.81 128.824 152.744 128.816C149.796 128.471 146.636 128.076 143.423 127.635C137.69 118.701 126.645 101.486 126.645 101.486C123.295 97.2493 120.577 95.8198 117.133 94.3628C113.038 92.7785 108.832 91.5003 104.549 90.5387L100.296 89.1977C99.4502 88.6804 98.6674 88.2297 98.0081 87.8607C97.8755 88.3753 97.7445 88.8846 97.6149 89.3885Z" fill="#B3B3B3"/>
<path d="M46.9097 47.3518C46.5787 36.8165 47.8777 25.3684 53.8348 16.3752C56.1506 12.958 59.2113 10.1105 62.7866 8.04705C67.7324 5.03376 73.3244 3.24083 79.1003 2.81646C82.5592 2.60557 86.0307 2.86292 89.4206 3.58151C90.8842 3.89755 92.3275 4.30062 93.7431 4.78857C94.4449 5.03055 95.1369 5.29668 95.8284 5.56626C95.8859 5.58868 96.1698 5.7387 95.8957 5.59155C95.9836 5.63926 96.0681 5.69099 96.156 5.74042L96.6768 6.03816C98.2213 6.91989 99.6128 4.53738 98.0695 3.65566C95.9359 2.52989 93.6595 1.69846 91.3025 1.18406C88.1929 0.430838 85.0075 0.0351183 81.8081 0.00458816C75.3757 -0.0318525 69.0357 1.53635 63.362 4.56727C59.1619 6.67178 55.4818 9.68302 52.5875 13.3834C49.7089 17.3261 47.5972 21.7748 46.3625 26.4978C44.4703 33.2539 43.9323 40.36 44.1525 47.3512C44.2099 49.1221 46.9689 49.1302 46.9115 47.3512L46.9097 47.3518Z" fill="#211715"/>
<path d="M117.573 47.3518C117.778 44.3982 117.798 41.4347 117.631 38.4788C117.56 35.955 117.354 33.4368 117.012 30.9352C116.131 24.7158 113.797 18.7917 110.197 13.6438C108.183 10.9163 105.755 8.52067 103 6.54398C102.684 6.36199 102.308 6.31188 101.955 6.40449C101.602 6.4971 101.3 6.72499 101.113 7.03887C100.937 7.35667 100.889 7.73035 100.982 8.08201C101.074 8.43367 101.298 8.73618 101.608 8.92648C106.108 12.2668 109.591 16.7924 111.667 21.9978C112.828 24.8168 113.678 27.7539 114.202 30.757C114.566 33.115 114.78 35.4937 114.843 37.8787C115.039 41.0346 115.029 44.2 114.814 47.3547C114.817 47.7196 114.963 48.0689 115.222 48.327C115.48 48.585 115.829 48.7313 116.194 48.7342C116.557 48.727 116.904 48.5793 117.161 48.3221C117.419 48.065 117.566 47.7183 117.573 47.3547V47.3518Z" fill="#211715"/>
<path d="M44.1519 47.3518C44.1467 54.8241 43.995 62.5314 42.3505 69.8387C42.0234 71.2929 41.6033 72.7196 41.3101 74.183C40.9078 76.2178 40.6089 78.2778 40.402 80.3419C40.1581 82.0267 40.1407 83.7365 40.3502 85.4259C40.6315 86.9711 41.2661 88.4303 42.2045 89.6897C43.4765 91.3604 45.1312 92.7012 47.0292 93.5993C48.9273 94.4974 51.0133 94.9266 53.1117 94.8507C54.8855 94.8226 54.8907 92.0636 53.1117 92.0917C49.8849 92.1429 46.6695 90.9514 44.6382 88.3654C43.8079 87.3212 43.2527 86.0854 43.0236 84.7712C42.7937 83.5067 43.0236 81.6673 43.1719 80.2304C43.3621 78.3767 43.6426 76.5304 44.0128 74.7043C44.295 73.3122 44.7025 71.9545 45.0106 70.5704C45.6396 67.621 46.0781 64.6342 46.3235 61.6284C46.7637 56.8835 46.908 52.1133 46.9109 47.3501C46.9109 45.5745 44.1519 45.5717 44.1519 47.3501V47.3518Z" fill="#211715"/>
<path d="M114.814 47.3518C114.924 54.9356 115.687 62.5918 117.758 69.9089C118.491 72.4954 119.522 75.0032 120.115 77.6277C120.517 79.4147 120.913 81.8409 120.6 83.4739C120.283 84.9983 119.571 86.4128 118.536 87.5762C115.902 90.649 111.768 92.5522 107.73 91.4503C106.014 90.9824 105.283 93.6431 106.996 94.111C111.181 95.2531 115.47 93.9104 118.756 91.2158C120.239 90.0152 121.456 88.5191 122.329 86.8226C123.171 85.1151 123.534 83.2114 123.381 81.3139C123.232 78.833 122.758 76.3824 121.971 74.0249C121.63 72.9788 121.258 71.943 120.93 70.8923C120.068 68.1246 119.386 65.3044 118.886 62.4492C118.044 57.4601 117.605 52.4113 117.572 47.3518C117.546 45.578 114.787 45.5728 114.813 47.3518H114.814Z" fill="#211715"/>
<path d="M106.281 58.9384C106.074 60.0749 105.723 61.1805 105.237 62.2285C105.076 62.6188 104.903 63.0051 104.753 63.3988C104.71 63.5109 104.67 63.6235 104.629 63.7356C104.612 63.7799 104.593 63.8224 104.577 63.8667C104.488 64.1207 104.683 63.6316 104.611 63.7891C104.088 64.93 103.493 66.0365 102.829 67.1016C100.944 70.277 98.5414 73.1147 95.7199 75.497C94.1895 76.8015 92.3805 77.7378 90.4318 78.2341C88.7022 78.6365 89.4345 81.2949 91.1652 80.8948C95.2278 79.9562 98.6088 76.9897 101.261 73.9054C103.536 71.3437 105.438 68.4729 106.909 65.3784C107.927 63.3465 108.646 61.1782 109.043 58.9407C109.041 58.5754 108.895 58.2256 108.637 57.9673C108.379 57.709 108.029 57.563 107.663 57.5612C107.3 57.5703 106.955 57.7185 106.698 57.9753C106.441 58.232 106.293 58.5777 106.284 58.9407L106.281 58.9384Z" fill="#211715"/>
<path d="M53.3935 59.1994C55.3024 67.4189 60.4519 75.3935 67.8885 79.6182C69.8905 80.7792 72.0895 81.561 74.375 81.9243C74.7274 82.0097 75.0991 81.9575 75.4143 81.7784C75.7296 81.5993 75.9647 81.3068 76.0718 80.9604C76.1663 80.6077 76.1182 80.232 75.938 79.9145C75.7577 79.597 75.4597 79.3632 75.1085 79.2636C67.1108 78.0738 60.9267 70.9866 57.8326 63.9282C57.0732 62.1665 56.4777 60.3386 56.0536 58.4677C55.6513 56.7393 52.9911 57.471 53.3935 59.2011V59.1994Z" fill="#211715"/>
<path d="M55.7047 44.0289C54.8233 43.2429 53.7285 42.736 52.559 42.5723C51.3894 42.4086 50.1976 42.5955 49.1342 43.1093C48.3794 43.5172 47.725 44.0883 47.2188 44.781C46.7126 45.4738 46.3673 46.2707 46.208 47.1138C45.7754 49.1242 45.7583 51.2017 46.1578 53.2189C46.5572 55.2361 47.3647 57.1503 48.5307 58.8442C50.1746 61.2295 52.5042 62.9413 55.5144 62.5303C55.8661 62.4311 56.1645 62.1973 56.3449 61.8795C56.5253 61.5618 56.5733 61.1858 56.4783 60.8329C56.3728 60.4854 56.1378 60.1917 55.822 60.0124C55.5061 59.8331 55.1335 59.782 54.781 59.8696C52.7181 60.1512 51.1023 57.936 50.2545 56.3737C49.3745 54.7977 48.8321 53.0557 48.6618 51.2586C48.5675 50.2505 48.6088 49.2342 48.7848 48.237C48.8582 47.8175 48.9704 47.4057 49.1199 47.0069C49.2005 46.8155 49.2967 46.6309 49.4073 46.4551C49.428 46.4212 49.6435 46.1102 49.5487 46.2327C49.9815 45.7311 50.5803 45.402 51.2357 45.3055C51.6798 45.2208 52.1372 45.2374 52.574 45.354C53.0108 45.4707 53.4157 45.6844 53.7584 45.9792C55.0724 47.1679 57.0296 45.2222 55.7093 44.0278L55.7047 44.0289Z" fill="#211715"/>
<path d="M108.758 45.9792C109.366 45.4676 110.149 45.2126 110.941 45.2682C111.733 45.3238 112.473 45.6856 113.003 46.2769C112.816 46.047 113.08 46.4057 113.109 46.4551C113.22 46.631 113.316 46.8155 113.397 47.0069C113.535 47.3738 113.64 47.7522 113.712 48.1375C113.905 49.1662 113.953 50.2167 113.855 51.2587C113.687 53.021 113.16 54.7304 112.307 56.2817C111.462 57.871 109.829 60.1535 107.733 59.8673C107.381 59.7826 107.009 59.835 106.694 60.0139C106.379 60.1927 106.143 60.4847 106.036 60.8306C105.941 61.1834 105.989 61.5592 106.169 61.8769C106.349 62.1945 106.647 62.4284 106.999 62.528C111.905 63.1976 114.759 58.4165 116.051 54.3757C116.684 52.2801 116.825 50.0667 116.463 47.9076C116.373 47.0316 116.104 46.1834 115.673 45.4153C115.242 44.6472 114.659 43.9755 113.958 43.4415C112.867 42.7419 111.576 42.4205 110.284 42.5266C108.992 42.6327 107.77 43.1606 106.807 44.0289C105.485 45.2228 107.444 47.169 108.758 45.9804V45.9792Z" fill="#211715"/>
<path d="M77.0644 26.5651C74.7362 29.9991 71.8241 32.9985 68.4604 35.4272C66.6534 36.7686 64.7782 38.0156 62.8424 39.1633C61.7917 39.746 60.7079 40.2669 59.5965 40.7233C58.0877 41.3998 56.5709 42.0591 55.0712 42.7552C54.7576 42.942 54.53 43.2446 54.4375 43.5977C54.3449 43.9508 54.3948 44.3261 54.5763 44.6428C54.7668 44.9523 55.0693 45.1765 55.4209 45.2687C55.7725 45.3609 56.1461 45.314 56.4639 45.1377C58.92 43.9973 61.5221 43.0593 63.892 41.7493C67.8746 39.5417 71.5413 36.8069 74.7929 33.6189C76.5435 31.9043 78.1044 30.0061 79.4487 27.9572C80.4206 26.4628 78.0329 25.0833 77.0667 26.5651H77.0644Z" fill="#211715"/>
<path d="M91.4083 22.9341C91.3393 23.0364 91.2698 23.137 91.1979 23.237C91.0548 23.4353 91.2554 23.1744 91.0956 23.3692C90.8871 23.6229 90.6701 23.8691 90.4444 24.1079C89.9869 24.5854 89.5058 25.0396 89.0028 25.469C87.7974 26.4859 86.5218 27.4167 85.1856 28.2544C82.1565 30.201 78.9437 31.8459 75.5935 33.1654C73.7727 33.8913 71.9006 34.4815 69.9927 34.9312C68.2626 35.3272 68.9949 37.9879 70.7262 37.5919C74.3943 36.6882 77.9429 35.3547 81.2983 33.6189C84.5985 32.0236 87.7056 30.0566 90.5593 27.756C91.7955 26.7757 92.8836 25.6221 93.7902 24.3309C94.784 22.8531 92.3946 21.4707 91.4083 22.9382V22.9341Z" fill="#211715"/>
<path d="M107.552 42.8104C106.119 41.701 104.643 40.6509 103.275 39.4588C101.471 37.8807 99.8831 36.0709 98.5535 34.0764C97.4195 32.4223 96.4524 30.6598 95.6663 28.8148C95.0341 27.2893 94.5599 25.7046 94.0696 24.1297C93.5442 22.4398 90.88 23.1606 91.4094 24.8631C92.5791 28.6257 93.9575 32.1779 96.171 35.4692C97.5569 37.5751 99.2039 39.4969 101.073 41.1889C102.481 42.4414 104.255 43.718 105.6 44.7612C105.865 45.0091 106.214 45.147 106.576 45.147C106.938 45.147 107.287 45.0091 107.551 44.7612C107.808 44.5014 107.952 44.151 107.952 43.7858C107.952 43.4206 107.808 43.0702 107.552 42.8104Z" fill="#211715"/>
<path d="M68.1201 79.2423C68.0344 80.4313 67.8884 81.6152 67.6827 82.7893C67.5927 83.512 67.4643 84.2294 67.2981 84.9385C67.274 85.0247 67.1194 85.4259 67.2171 85.2149C67.1525 85.3521 67.0786 85.4846 66.9958 85.6116C66.8762 85.7961 67.1159 85.4805 66.9671 85.6524C66.9211 85.7052 66.8734 85.7564 66.8234 85.8053C66.7123 85.9297 66.578 86.0313 66.4279 86.1041C66.0434 86.306 65.6487 86.4881 65.2456 86.6496C63.1964 87.5814 61.1617 88.5464 59.1172 89.4845C58.5887 89.7278 58.0599 89.9694 57.5307 90.2093C57.3422 90.2944 57.1525 90.3777 56.9634 90.4628C56.6134 90.6203 57.2813 90.3478 56.9697 90.4588C56.622 90.5639 56.328 90.7988 56.1486 91.1148C55.9693 91.4308 55.9184 91.8036 56.0064 92.1561C56.1064 92.5071 56.3403 92.8048 56.6577 92.985C56.975 93.1652 57.3505 93.2135 57.7032 93.1195C58.5176 92.828 59.3051 92.4199 60.0897 92.0596C61.3473 91.4848 62.6033 90.9046 63.8574 90.3191L66.6383 89.0321C66.7161 89.0067 66.7909 88.9727 66.8613 88.931C66.8527 88.9384 66.3411 89.139 66.6463 89.0264C66.7969 88.9689 66.9441 88.9074 67.0912 88.8442C67.3685 88.7311 67.6366 88.5966 67.893 88.4418C68.7568 87.9071 69.4227 87.1054 69.7899 86.1582C70.0438 85.3876 70.214 84.5919 70.2974 83.7849C70.5463 82.276 70.7739 80.7684 70.8785 79.2406C70.8785 78.8747 70.7332 78.5238 70.4745 78.2651C70.2158 78.0064 69.8649 77.8611 69.499 77.8611C69.1332 77.8611 68.7823 78.0064 68.5236 78.2651C68.2649 78.5238 68.1195 78.8747 68.1195 79.2406L68.1201 79.2423Z" fill="#211715"/>
<path d="M91.6193 78.8198C91.742 80.9631 92.0155 83.0951 92.4378 85.2C92.6138 86.0862 93.0243 86.909 93.6264 87.5827C94.2285 88.2564 95.0002 88.7563 95.8612 89.0304C96.2009 89.158 95.4169 88.8218 95.8118 89.0091C95.9526 89.0764 96.0952 89.1408 96.2366 89.2069C96.6845 89.4161 97.1313 89.6268 97.577 89.8391C98.7265 90.3813 99.8748 90.9243 101.022 91.4681C101.811 91.8417 102.595 92.2377 103.396 92.5861C103.715 92.7592 104.087 92.8044 104.438 92.7124C104.789 92.6205 105.091 92.3983 105.284 92.0912C105.466 91.7747 105.516 91.3993 105.423 91.0462C105.331 90.693 105.103 90.3906 104.789 90.2041C103.078 89.4609 101.409 88.6091 99.7232 87.8124C98.9053 87.4262 98.0897 87.0336 97.2672 86.6577C96.8895 86.4852 96.4946 86.3507 96.1348 86.1404C95.9997 86.071 95.8745 85.9841 95.7624 85.8817C95.725 85.8472 95.483 85.5943 95.5985 85.7374C95.4013 85.5318 95.2711 85.2713 95.2249 84.9902C95.0389 84.2298 94.8994 83.4587 94.8071 82.6813C94.5958 81.4034 94.4527 80.1152 94.3783 78.8221C94.3705 78.4587 94.2227 78.1123 93.9656 77.8553C93.7086 77.5982 93.3622 77.4504 92.9988 77.4426C92.634 77.4461 92.2851 77.5925 92.0271 77.8505C91.7692 78.1084 91.6227 78.4573 91.6193 78.8221V78.8198Z" fill="#211715"/>
<path d="M76.3091 67.2028C77.9239 68.0376 79.7223 68.454 81.5397 68.4138C83.4246 68.4932 85.2826 67.9445 86.822 66.8539C87.079 66.5942 87.2232 66.2435 87.2232 65.8782C87.2232 65.5128 87.079 65.1621 86.822 64.9024C86.5589 64.6522 86.2097 64.5126 85.8466 64.5126C85.4835 64.5126 85.1342 64.6522 84.8712 64.9024C85.2908 64.576 84.97 64.8225 84.8625 64.8915C84.7551 64.9605 84.6499 65.0209 84.5395 65.0783C84.482 65.1082 84.4246 65.1358 84.3671 65.1645C84.1567 65.2726 84.3728 65.1071 84.4246 65.1444C84.2716 65.1846 84.1227 65.2387 83.9797 65.3059C83.5728 65.4343 83.1563 65.5294 82.7341 65.5905C82.9399 65.5594 82.71 65.5905 82.622 65.5997C82.4996 65.6117 82.3777 65.6221 82.2547 65.6301C81.9604 65.6491 81.665 65.6566 81.3695 65.6548C81.1051 65.6548 80.8409 65.6453 80.5769 65.6261C80.4556 65.6181 80.3349 65.6083 80.2136 65.5962C80.1958 65.5962 79.7538 65.5318 80.0452 65.5778C79.652 65.5175 79.2632 65.4313 78.8813 65.3197C78.7186 65.2709 78.5594 65.2123 78.399 65.1571C78.0478 65.0375 78.6077 65.2646 78.291 65.1151C78.0915 65.0214 77.8949 64.9231 77.6995 64.8203C77.5431 64.7288 77.3702 64.6691 77.1906 64.6444C77.0111 64.6198 76.8285 64.6308 76.6532 64.6768C76.4779 64.7227 76.3134 64.8027 76.1691 64.9123C76.0247 65.0218 75.9033 65.1587 75.8119 65.3151C75.7204 65.4716 75.6607 65.6445 75.6361 65.824C75.6115 66.0035 75.6225 66.1862 75.6684 66.3614C75.7144 66.5367 75.7944 66.7012 75.9039 66.8456C76.0135 66.9899 76.1503 67.1113 76.3068 67.2028H76.3091Z" fill="#211715"/>
<path d="M80.8253 54.8953C81.0652 55.763 81.2571 56.6431 81.4001 57.5319L81.3506 57.1652C81.3676 57.2857 81.3709 57.4078 81.3604 57.529L81.4098 57.1623C81.4017 57.2181 81.3882 57.2729 81.3696 57.3261L81.5087 56.9968C81.4927 57.0335 81.4735 57.0687 81.4512 57.1019L81.6668 56.8226C81.6414 56.8542 81.6125 56.8827 81.5805 56.9077L81.8599 56.6921C81.7927 56.7335 81.7228 56.7704 81.6507 56.8025L81.9806 56.6634C81.8678 56.7119 81.7494 56.7464 81.6283 56.7663L81.995 56.7168C81.8854 56.7298 81.7746 56.7298 81.665 56.7168L82.0318 56.7663C81.907 56.7485 81.7846 56.7186 81.6599 56.7019C81.482 56.6445 81.292 56.6359 81.1098 56.6772C80.9274 56.685 80.7504 56.7413 80.5971 56.8404C80.4406 56.9318 80.3037 57.0532 80.1941 57.1975C80.0846 57.3419 80.0045 57.5064 79.9585 57.6817C79.9126 57.857 79.9016 58.0396 79.9263 58.2191C79.9509 58.3987 80.0107 58.5716 80.1022 58.728C80.1898 58.8836 80.3079 59.0198 80.4496 59.1285C80.5913 59.2372 80.7535 59.316 80.9264 59.3603C81.2138 59.3988 81.4903 59.4718 81.7811 59.4845C82.2207 59.4872 82.6544 59.3841 83.0457 59.1838C83.2933 59.071 83.5126 58.9044 83.6876 58.6961C83.8626 58.4877 83.9889 58.243 84.0573 57.9797C84.1465 57.5523 84.1422 57.1107 84.0447 56.6852C83.901 55.8357 83.705 54.9942 83.486 54.1607C83.3887 53.808 83.1553 53.5083 82.8371 53.3277C82.5189 53.147 82.1419 53.1001 81.7892 53.1974C81.4364 53.2947 81.1368 53.5281 80.9561 53.8463C80.7754 54.1645 80.7286 54.5414 80.8258 54.8942L80.8253 54.8953Z" fill="#211715"/>
<path d="M66.9194 47.4259C66.4803 48.8526 66.7677 52.1335 69.4692 52.4134C73.0415 52.3921 73.2312 48.4243 72.0287 46.5586C71.0441 45.0314 68.1472 44.3962 66.9194 47.4259Z" fill="#211715"/>
<path d="M95.5928 47.4259C96.0319 48.8526 95.7457 52.134 93.043 52.4134C89.4713 52.3921 89.281 48.4243 90.4835 46.5586C91.4675 45.0314 94.3627 44.3962 95.5928 47.4259Z" fill="#211715"/>
<path d="M104.18 91.8722C108.256 92.7423 112.257 93.9363 116.143 95.4428C117.812 96.078 119.41 96.8871 120.909 97.8569C122.723 99.1376 124.328 100.691 125.668 102.462C125.927 102.719 126.278 102.863 126.643 102.863C127.008 102.863 127.359 102.719 127.618 102.462C127.869 102.199 128.009 101.85 128.009 101.486C128.009 101.123 127.869 100.774 127.618 100.511C126.155 98.6191 124.416 96.9576 122.46 95.5819C120.804 94.5068 119.039 93.6103 117.194 92.9074C113.213 91.3291 109.104 90.0917 104.914 89.2086C103.184 88.8275 102.442 91.4871 104.18 91.8693V91.8722Z" fill="#211715"/>
<path d="M46.8138 141.012C45.9309 133.999 45.2665 126.954 44.7675 119.905C44.7589 119.542 44.6108 119.196 44.354 118.939C44.0971 118.682 43.7512 118.534 43.388 118.526C43.0231 118.529 42.674 118.675 42.4159 118.933C42.1579 119.191 42.0115 119.54 42.0085 119.905C42.5075 126.954 43.1719 133.999 44.0548 141.012C44.0658 141.374 44.2146 141.718 44.471 141.975C44.7274 142.231 45.0719 142.38 45.4343 142.391C45.7995 142.389 46.1492 142.243 46.4074 141.985C46.6657 141.726 46.8117 141.377 46.8138 141.012Z" fill="#211715"/>
<path d="M115.824 181.592C116.21 174.752 116.534 167.908 116.916 161.068C117.334 153.546 117.85 146.029 118.34 138.511C118.664 133.525 118.972 128.538 119.263 123.549C119.366 121.776 116.607 121.781 116.504 123.549C116.024 131.864 115.467 140.174 114.926 148.485C114.448 155.842 114.047 163.197 113.679 170.557C113.495 174.236 113.276 177.914 113.067 181.593C112.967 183.367 115.726 183.361 115.826 181.593L115.824 181.592Z" fill="#211715"/>
<path d="M40.6469 183C48.1283 183 55.6098 182.998 63.0913 182.993L96.3142 182.979L114.447 182.971C116.222 182.971 116.225 180.212 114.447 180.212L81.2696 180.227L51.0747 180.239C47.5995 180.239 44.1245 180.239 40.6497 180.239C38.8742 180.239 38.8713 182.998 40.6497 182.998L40.6469 183Z" fill="#211715"/>
<path d="M59.1119 89.3063C54.7786 90.6939 50.3843 91.9452 46.2642 93.9046C42.0915 95.8202 38.3787 98.6095 35.3771 102.084C32.4687 105.615 30.9944 109.923 29.9626 114.318C29.0039 118.41 28.2428 122.541 27.545 126.684C26.2673 134.264 25.2258 141.873 24.5671 149.533C24.3701 151.829 24.1965 154.126 24.0463 156.425C23.8357 158.827 23.7879 161.24 23.9032 163.649C24.217 168.243 25.3401 172.828 28.2607 176.477C30.9588 179.942 34.8898 182.234 39.2351 182.874C43.4552 183.422 47.365 181.856 50.8723 179.631C51.8041 179.039 52.7117 178.41 53.6112 177.772C53.9193 177.58 54.1423 177.278 54.2344 176.927C54.3265 176.577 54.2805 176.204 54.1061 175.886C53.9194 175.572 53.6168 175.344 53.2636 175.252C52.9105 175.159 52.5351 175.209 52.2185 175.391C49.1813 177.546 45.8004 179.924 41.9631 180.209C38.035 180.501 34.3724 178.806 31.6134 176.081C25.139 169.687 26.5127 159.654 27.1691 151.432C27.7439 144.229 28.6331 137.073 29.7884 129.941C30.4431 125.9 31.1363 121.862 31.9939 117.859C32.8348 113.931 33.7039 109.927 35.7266 106.411C37.8505 102.718 41.3164 99.8646 44.9508 97.7224C48.6249 95.5566 52.6783 94.2254 56.726 92.9516C57.7658 92.624 58.8067 92.2993 59.8454 91.967C61.5295 91.4273 60.8093 88.7626 59.1119 89.3063Z" fill="#211715"/>
<path d="M73.9198 141.245C67.2401 130.629 60.58 119.978 54.5355 108.985C54.1447 108.274 53.7601 107.56 53.3722 106.847C53.3182 106.764 53.2704 106.676 53.229 106.586C53.1905 106.458 53.1572 106.766 53.2256 106.64C53.4809 106.31 53.7853 106.022 54.128 105.784C55.4132 104.662 56.887 103.772 58.2608 102.764C58.4637 102.639 58.6312 102.464 58.7474 102.255C58.8636 102.047 58.9246 101.812 58.9246 101.573C58.9246 101.335 58.8636 101.1 58.7474 100.891C58.6312 100.683 58.4637 100.508 58.2608 100.382C57.4158 99.8399 56.5858 99.2743 55.7518 98.7151C55.3282 98.4311 54.9034 98.1483 54.4746 97.8718C54.3033 97.7607 54.1309 97.6511 53.9573 97.5431C53.8234 97.4597 53.3825 97.0487 53.5486 97.3436L53.7371 98.0403L53.7481 97.7989L53.5595 98.4955C54.4959 96.3004 56.6887 94.572 58.5286 93.1201C60.4625 91.5968 62.5196 90.2369 64.6789 89.0546L62.655 88.2303C66.2078 102.14 69.998 116.067 75.2429 129.451C76.5339 132.744 77.9054 136.003 79.2423 139.28C79.3493 139.626 79.5844 139.919 79.8997 140.098C80.2151 140.277 80.5868 140.329 80.9391 140.243C81.2906 140.144 81.5889 139.91 81.7693 139.593C81.9498 139.275 81.9978 138.899 81.903 138.546C79.5033 132.669 77.0748 126.821 75.0055 120.814C72.6317 113.933 70.536 106.962 68.603 99.9451C67.4626 95.8066 66.3768 91.6549 65.3146 87.4969C65.2558 87.2949 65.152 87.1088 65.0111 86.9526C64.8702 86.7963 64.6957 86.674 64.5009 86.5947C64.306 86.5154 64.0957 86.4813 63.8857 86.4948C63.6758 86.5082 63.4716 86.5691 63.2884 86.6726C59.9102 88.4858 56.7929 90.7481 54.0217 93.3977C53.3408 94.0622 52.7104 94.7765 52.1358 95.5347C51.5696 96.282 50.854 97.2436 51.0023 98.2259C51.1874 99.4531 52.7841 100.054 53.7165 100.672C54.7689 101.367 55.8058 102.086 56.868 102.767V100.384C55.5305 101.369 54.1297 102.264 52.8278 103.296C51.584 104.282 50.0504 105.538 50.5678 107.32C50.8301 108.014 51.1645 108.68 51.5656 109.305C51.9576 110.025 52.3527 110.744 52.7508 111.46C53.5268 112.86 54.3123 114.253 55.1075 115.64C58.4677 121.5 61.9704 127.277 65.525 133.02C67.5164 136.235 69.5209 139.44 71.5384 142.637C72.4816 144.137 74.8716 142.752 73.9198 141.245Z" fill="#211715"/>
<path d="M83.0583 138.993C85.4276 133.193 87.9503 127.475 89.8931 121.511C92.1572 114.56 94.1972 107.533 96.1181 100.481C97.2294 96.4075 98.3023 92.324 99.3369 88.2303L97.3102 89.0546C99.4687 90.2503 101.553 91.5747 103.553 93.0206C105.349 94.3351 107.508 95.94 108.392 98.0138L108.204 97.3177L108.215 97.554L108.403 96.8573C108.579 96.5406 108.24 96.9016 108.112 96.9809C107.908 97.1074 107.705 97.2359 107.504 97.3666C107.083 97.6373 106.667 97.9149 106.251 98.1937C105.433 98.7421 104.619 99.2973 103.789 99.829C103.586 99.9546 103.419 100.13 103.303 100.338C103.186 100.547 103.125 100.782 103.125 101.02C103.125 101.259 103.186 101.494 103.303 101.702C103.419 101.911 103.586 102.086 103.789 102.212C104.944 103.061 106.17 103.821 107.293 104.714C107.541 104.911 107.783 105.116 108.019 105.329C108.292 105.523 108.533 105.759 108.735 106.026C108.68 105.911 108.746 105.87 108.574 106.185C108.381 106.54 108.19 106.895 107.999 107.25C106.575 109.868 105.113 112.465 103.613 115.041C100.482 120.444 97.2366 125.779 93.9477 131.086C92.1164 134.041 90.2736 136.987 88.4194 139.927C87.471 141.434 89.8563 142.82 90.8019 141.32C97.7724 130.242 104.806 119.139 110.958 107.579C111.433 106.687 111.687 105.791 111.216 104.83C110.805 104.139 110.259 103.539 109.611 103.065C108.214 101.882 106.655 100.914 105.185 99.8307V102.213C106.226 101.545 107.244 100.84 108.277 100.158C109.145 99.583 110.625 99.0214 110.928 97.9224C111.198 96.9412 110.476 95.9515 109.914 95.2106C109.343 94.4624 108.709 93.7653 108.017 93.1269C105.178 90.6189 102.052 88.4541 98.7058 86.6772C98.5227 86.5734 98.3184 86.5124 98.1084 86.4988C97.8983 86.4852 97.6879 86.5193 97.4929 86.5986C97.2979 86.6779 97.1234 86.8004 96.9825 86.9567C96.8415 87.1131 96.7378 87.2993 96.6791 87.5015C94.8518 94.6748 92.951 101.829 90.8737 108.935C88.943 115.538 86.9841 122.164 84.428 128.558C83.1278 131.81 81.7265 135.022 80.4045 138.265C80.3097 138.617 80.3578 138.993 80.5382 139.311C80.7186 139.628 81.0169 139.862 81.3684 139.961C81.7208 140.05 82.0937 139.999 82.4097 139.82C82.7257 139.64 82.9604 139.346 83.0652 138.998L83.0583 138.993Z" fill="#211715"/>
<path d="M65.6979 95.7204C73.1742 99.1553 81.9806 99.7439 89.9334 97.7414C92.2201 97.1655 94.4367 96.3406 96.5435 95.2813C98.1299 94.484 96.7343 92.1027 95.1508 92.8993C88.4171 96.2843 80.2367 96.9177 72.934 95.2703C70.9244 94.8313 68.9662 94.1837 67.0912 93.3379C66.7729 93.1636 66.4 93.1178 66.049 93.2098C65.6979 93.3019 65.3955 93.5248 65.2036 93.8328C65.0219 94.1494 64.9719 94.5248 65.0645 94.8779C65.1571 95.2311 65.3842 95.5337 65.6979 95.7204Z" fill="#211715"/>
<path d="M148.043 132.479C148.123 130.549 148.308 128.625 148.597 126.716C150.073 126.014 151.384 125.007 152.444 123.761C153.155 122.945 153.758 122.041 154.238 121.071C155.732 117.539 156.791 113.648 156.719 110.897C156.842 110.624 156.93 110.338 156.983 110.044C157.242 108.524 157.479 107.001 157.682 105.477C157.833 104.315 157.959 103.079 157.479 102.009C157.258 101.515 156.917 101.085 156.488 100.757C156.058 100.429 155.554 100.213 155.02 100.129C154.486 100.045 153.94 100.096 153.431 100.276C152.921 100.457 152.465 100.762 152.103 101.163C152.061 100.559 151.833 99.9836 151.451 99.5145C151.069 99.0454 150.551 98.7059 149.968 98.5426C149.328 98.3948 148.659 98.4295 148.037 98.6429C147.416 98.8563 146.867 99.2397 146.452 99.7497L146.293 99.9434L145.942 99.0916C145.676 98.6112 145.302 98.1988 144.85 97.8867C144.398 97.5747 143.88 97.3713 143.337 97.2925C142.726 97.2296 142.111 97.3562 141.575 97.6549C141.039 97.9536 140.608 98.4101 140.341 98.9622C140.341 98.9622 140.164 99.1404 139.913 99.3945C140.91 93.8667 142.013 85.9846 142.373 82.4209C142.468 81.6627 142.26 80.8975 141.795 80.2915C141.33 79.6855 140.644 79.2876 139.887 79.1843C137.483 78.871 136.42 80.3155 136.084 82.21C135.024 88.1602 133.685 95.1491 132.757 101.948C131.281 102.466 130.104 103.48 129.867 105.085C129.592 106.954 129.254 108.815 129.069 110.695C128.788 112.808 128.829 114.951 129.192 117.051C129.565 119.167 130.683 121.08 132.343 122.444C132.693 122.713 133.058 122.962 133.435 123.191C133.26 125.344 132.965 127.486 132.551 129.605L148.043 132.479Z" fill="white"/>
<path d="M155.311 112.044C155.167 113.562 154.865 115.061 154.412 116.517C154.008 118.149 153.4 119.723 152.604 121.204C151.216 123.517 149.024 125.475 146.309 125.936C145.958 126.036 145.66 126.27 145.48 126.587C145.299 126.904 145.251 127.28 145.346 127.633C145.45 127.981 145.685 128.275 146.001 128.455C146.317 128.634 146.69 128.685 147.042 128.597C150.359 128.033 153.129 125.573 154.869 122.787C155.806 121.124 156.522 119.345 156.999 117.496C157.551 115.723 157.91 113.895 158.07 112.044C158.067 111.679 157.921 111.33 157.663 111.072C157.405 110.814 157.056 110.668 156.691 110.665C156.327 110.672 155.98 110.82 155.723 111.077C155.466 111.334 155.318 111.681 155.311 112.044Z" fill="#211715"/>
<path d="M134.087 102.316C134.585 98.6905 135.155 95.0766 135.795 91.4738C136.111 89.702 136.443 87.9333 136.794 86.1679C136.95 85.3862 137.109 84.6055 137.271 83.8257C137.377 83.1043 137.55 82.3943 137.789 81.7053C138.143 80.858 138.69 80.3643 139.605 80.5321C140.432 80.6833 140.755 81.7892 140.741 82.5399C140.665 83.6773 140.525 84.8096 140.321 85.9311C140.135 87.3417 139.946 88.7516 139.755 90.161C139.289 93.5975 138.809 97.0321 138.313 100.465C138.228 100.817 138.28 101.189 138.459 101.504C138.638 101.819 138.93 102.054 139.276 102.161C139.629 102.256 140.005 102.208 140.322 102.028C140.64 101.848 140.874 101.55 140.973 101.198C141.475 97.7666 141.956 94.3321 142.416 90.8944C142.64 89.2402 142.861 87.5858 143.08 85.9311C143.242 84.7086 143.584 83.3658 143.483 82.13C143.453 81.3725 143.248 80.6321 142.884 79.9672C142.52 79.3022 142.007 78.7308 141.385 78.2979C140.694 77.903 139.906 77.7117 139.111 77.7462C138.317 77.7807 137.548 78.0395 136.894 78.4928C135.61 79.4262 135.076 80.873 134.758 82.3709C134.371 84.1949 134.005 86.0233 133.659 87.8561C132.798 92.4115 132.052 96.9865 131.422 101.581C131.337 101.933 131.389 102.305 131.568 102.62C131.747 102.935 132.04 103.171 132.386 103.278C132.738 103.373 133.114 103.325 133.432 103.145C133.749 102.964 133.983 102.666 134.082 102.315L134.087 102.316Z" fill="#211715"/>
<path d="M133.88 129.97C134.294 127.864 134.595 125.738 134.78 123.599C134.779 123.234 134.633 122.884 134.375 122.626C134.116 122.367 133.766 122.221 133.401 122.22C133.038 122.229 132.692 122.377 132.435 122.634C132.179 122.891 132.03 123.236 132.021 123.599C131.979 124.074 131.931 124.548 131.877 125.021C131.849 125.27 131.82 125.518 131.787 125.766C131.782 125.804 131.73 126.226 131.755 126.014C131.78 125.801 131.726 126.225 131.72 126.263C131.58 127.259 131.415 128.25 131.219 129.236C131.122 129.589 131.169 129.966 131.35 130.285C131.53 130.603 131.83 130.836 132.183 130.934C132.536 131.031 132.913 130.984 133.231 130.803C133.549 130.622 133.783 130.323 133.88 129.97Z" fill="#211715"/>
<path d="M136.276 123.067C134.95 122.562 133.725 121.827 132.655 120.896C131.737 119.961 131.076 118.805 130.735 117.541C129.761 114.196 130.41 110.499 130.938 107.132C131.126 105.936 131.092 104.588 132.141 103.798C133.31 102.914 135.045 102.76 136.43 102.451C136.838 102.36 137.246 102.268 137.655 102.175C137.708 102.163 138.431 102.065 138 102.091C138.153 102.082 138.305 102.069 138.459 102.069C138.589 102.069 138.719 102.074 138.848 102.084C139.135 102.105 138.714 102.041 139.037 102.11C139.784 102.272 140.605 102.663 140.753 103.63C140.94 104.86 139.311 105.565 138.392 106.065C137.083 106.778 135.717 107.375 134.36 107.992C134.046 108.178 133.818 108.481 133.726 108.834C133.633 109.187 133.683 109.562 133.865 109.879C134.056 110.188 134.358 110.412 134.71 110.505C135.061 110.597 135.435 110.55 135.753 110.374C137.232 109.7 138.718 109.045 140.138 108.253C141.644 107.413 143.141 106.341 143.452 104.522C143.996 101.333 140.945 99.0691 138 99.3318C137.176 99.4414 136.36 99.6048 135.558 99.821C134.515 100.022 133.482 100.278 132.466 100.588C131.661 100.82 130.917 101.226 130.285 101.776C129.653 102.327 129.15 103.009 128.81 103.774C128.535 104.626 128.357 105.506 128.279 106.397C128.099 107.547 127.922 108.696 127.783 109.846C127.48 111.96 127.441 114.103 127.668 116.226C127.899 118.332 128.698 120.336 129.981 122.023C131.254 123.637 133.037 124.62 134.883 125.444C135.201 125.618 135.574 125.663 135.925 125.571C136.275 125.479 136.578 125.257 136.77 124.949C136.952 124.632 137.002 124.257 136.909 123.904C136.817 123.551 136.589 123.248 136.275 123.061L136.276 123.067Z" fill="#211715"/>
<path d="M140.643 115.774C140.561 116.087 140.457 116.395 140.333 116.694L140.472 116.364C140.301 116.768 140.081 117.149 139.817 117.498L140.033 117.219C139.829 117.48 139.602 117.722 139.354 117.941C139.16 118.134 139.028 118.38 138.975 118.648C138.921 118.916 138.949 119.194 139.053 119.446C139.158 119.699 139.335 119.914 139.563 120.066C139.79 120.217 140.058 120.298 140.331 120.297C140.695 120.285 141.041 120.142 141.308 119.895C142.291 118.987 142.985 117.811 143.306 116.513C143.399 116.154 143.349 115.773 143.167 115.449C142.982 115.134 142.68 114.904 142.326 114.811C141.972 114.718 141.596 114.77 141.28 114.955C140.973 115.141 140.748 115.435 140.648 115.779L140.643 115.774Z" fill="#211715"/>
<path d="M147.227 126.556C146.936 128.518 146.748 130.495 146.666 132.476C146.668 132.842 146.814 133.192 147.072 133.45C147.33 133.708 147.68 133.854 148.045 133.856C148.408 133.847 148.754 133.699 149.011 133.442C149.268 133.186 149.416 132.84 149.425 132.476C149.498 131.499 149.555 130.519 149.631 129.541C149.666 129.1 149.704 128.659 149.752 128.219C149.762 128.127 149.773 128.035 149.783 127.943L149.806 127.763C149.776 127.982 149.772 128.017 149.793 127.867C149.821 127.672 149.85 127.479 149.887 127.286C149.936 127.111 149.949 126.929 149.927 126.749C149.904 126.569 149.847 126.396 149.757 126.238C149.668 126.081 149.548 125.942 149.405 125.831C149.262 125.72 149.099 125.638 148.924 125.589C148.749 125.541 148.567 125.528 148.387 125.55C148.207 125.573 148.034 125.63 147.876 125.72C147.719 125.809 147.58 125.929 147.469 126.072C147.358 126.215 147.276 126.378 147.227 126.553V126.556Z" fill="#211715"/>
<path d="M141.532 99.6577C141.668 99.3859 141.872 99.1539 142.124 98.9842C142.376 98.8144 142.667 98.7127 142.97 98.689C143.273 98.6652 143.577 98.7201 143.853 98.8485C144.128 98.9768 144.365 99.1742 144.542 99.4215C144.588 99.479 144.617 99.5485 144.66 99.6071C144.77 99.7543 144.63 99.5669 144.627 99.5295C144.647 99.7503 144.609 99.1881 144.632 99.5543C144.649 99.8221 144.67 100.088 144.676 100.359C144.693 101.042 144.676 101.727 144.643 102.41C144.572 103.991 144.436 105.572 144.245 107.142C144.211 107.757 144.12 108.368 143.973 108.967C143.892 109.128 143.771 109.266 143.621 109.367C143.471 109.467 143.297 109.528 143.117 109.542C142.847 109.575 142.573 109.543 142.318 109.449C142.062 109.355 141.833 109.202 141.648 109.002C141.235 108.439 141.316 107.615 141.419 106.774C141.417 106.408 141.271 106.059 141.012 105.8C140.754 105.542 140.404 105.396 140.039 105.394C139.676 105.403 139.33 105.551 139.073 105.808C138.816 106.065 138.668 106.41 138.66 106.774C138.458 107.94 138.629 109.14 139.149 110.203C139.433 110.691 139.813 111.117 140.266 111.455C140.719 111.794 141.235 112.037 141.784 112.171C142.898 112.46 144.08 112.298 145.075 111.72C145.54 111.426 145.932 111.03 146.223 110.562C146.513 110.094 146.693 109.566 146.749 109.019C147.074 106.914 147.287 104.794 147.39 102.667C147.434 101.796 147.466 100.919 147.426 100.047C147.452 99.1117 147.123 98.2012 146.506 97.4982C144.457 95.2301 140.586 95.425 139.152 98.2667C138.976 98.5846 138.929 98.9581 139.022 99.3096C139.114 99.6611 139.338 99.9636 139.647 100.154C139.964 100.335 140.339 100.385 140.692 100.293C141.045 100.2 141.347 99.9727 141.535 99.6594L141.532 99.6577Z" fill="#211715"/>
<path d="M153.076 102.132C153.273 101.907 153.519 101.731 153.796 101.62C154.072 101.508 154.372 101.463 154.669 101.488C154.967 101.514 155.254 101.609 155.507 101.767C155.761 101.924 155.974 102.139 156.129 102.394C156.452 103.098 156.547 103.885 156.4 104.645C156.311 105.645 156.143 106.642 155.989 107.634C155.923 108.542 155.752 109.438 155.48 110.306C155.399 110.528 155.252 110.72 155.059 110.856C155.26 110.701 154.673 111.01 154.927 110.919C154.881 110.936 154.507 110.999 154.716 110.976C154.418 110.999 154.119 110.952 153.842 110.839C153.585 110.755 153.899 110.896 153.662 110.762C153.623 110.74 153.332 110.515 153.527 110.689C153.466 110.635 153.408 110.578 153.354 110.517C153.429 110.62 153.439 110.632 153.385 110.551C153.351 110.499 153.189 110.129 153.27 110.359C153.168 110.09 153.116 109.805 153.117 109.518C153.11 109.154 152.962 108.808 152.705 108.551C152.448 108.294 152.101 108.146 151.738 108.138C151.373 108.142 151.024 108.288 150.766 108.546C150.508 108.804 150.362 109.153 150.358 109.518C150.451 111.324 151.206 112.807 152.971 113.452C153.81 113.794 154.742 113.832 155.606 113.561C156.47 113.29 157.213 112.727 157.707 111.967C158.18 111.075 158.462 110.094 158.535 109.086C158.728 107.884 158.904 106.68 159.063 105.473C159.328 103.426 159.216 101.223 157.487 99.8169C156.577 99.0632 155.415 98.6816 154.235 98.7489C153.055 98.8162 151.944 99.3273 151.125 100.18C149.874 101.444 151.824 103.394 153.076 102.13L153.076 102.132Z" fill="#211715"/>
<path d="M144.181 109.247C144.226 110.162 144.571 111.037 145.161 111.737C145.752 112.437 146.556 112.924 147.45 113.123C148.429 113.384 149.466 113.313 150.4 112.921C151.334 112.53 152.111 111.84 152.611 110.96C153.081 110.109 153.086 109.06 153.168 108.109C153.264 107.011 153.321 105.91 153.364 104.808C153.449 102.682 153.914 100.263 152.41 98.5191C150.576 96.3923 147.236 96.7562 145.477 98.7737C145.227 99.0366 145.087 99.3859 145.087 99.7491C145.087 100.112 145.227 100.462 145.477 100.725C145.737 100.98 146.088 101.123 146.452 101.123C146.817 101.123 147.168 100.98 147.428 100.725C147.657 100.421 147.959 100.18 148.305 100.023C148.651 99.8657 149.031 99.7977 149.41 99.825C149.732 99.8751 150.031 100.023 150.266 100.25C150.5 100.476 150.659 100.769 150.721 101.09C150.769 102.047 150.741 103.006 150.637 103.959C150.601 104.994 150.558 106.028 150.489 107.063C150.455 107.58 150.415 108.093 150.363 108.608C150.34 108.832 150.316 109.057 150.287 109.281C150.274 109.384 150.173 109.762 150.322 109.38C150.241 109.602 150.117 109.805 149.957 109.978C149.797 110.152 149.605 110.292 149.391 110.39C149.051 110.519 148.683 110.559 148.323 110.504C147.963 110.45 147.624 110.303 147.337 110.079C147.478 110.194 147.212 109.936 147.189 109.906C147.332 110.072 147.065 109.699 147.038 109.645C147.168 109.899 146.988 109.472 146.969 109.411C146.95 109.338 146.935 109.265 146.923 109.191C146.947 109.379 146.953 109.395 146.94 109.241C146.932 108.877 146.784 108.531 146.527 108.274C146.27 108.017 145.924 107.869 145.56 107.861C145.196 107.864 144.846 108.011 144.588 108.269C144.33 108.527 144.184 108.876 144.181 109.241V109.247Z" fill="#211715"/>
<path d="M135.747 126.507C133.916 126.216 132.109 125.914 130.354 125.6C130.225 125.576 130.093 125.603 129.984 125.675C129.875 125.747 129.798 125.858 129.77 125.986C129.017 129.328 128.06 134.343 127.236 138.869L151.322 143.02C152.155 137.917 152.799 132.992 153.187 129.377C153.194 129.311 153.188 129.244 153.17 129.181C153.152 129.117 153.121 129.058 153.08 129.006C153.038 128.955 152.987 128.912 152.929 128.88C152.871 128.848 152.808 128.828 152.742 128.82C147.453 128.203 141.49 127.417 135.747 126.507Z" fill="#B3B3B3"/>
<path d="M128.566 139.235C128.985 136.936 129.416 134.641 129.86 132.351C130.062 131.316 130.268 130.283 130.48 129.253C130.583 128.746 130.69 128.239 130.798 127.733C130.841 127.529 130.885 127.326 130.93 127.122C130.961 126.977 131.202 126.414 130.959 126.65L130.35 127.005C130.197 126.967 130.201 126.964 130.364 126.996L130.741 127.064L131.373 127.174C131.841 127.255 132.31 127.335 132.779 127.413C133.729 127.572 134.68 127.727 135.632 127.877C137.558 128.181 139.487 128.468 141.419 128.739C143.363 129.014 145.309 129.276 147.257 129.526C148.144 129.64 149.03 129.752 149.918 129.859C150.372 129.915 150.826 129.97 151.281 130.024L152.015 130.112L152.258 130.141C152.619 130.201 152.582 130.169 152.146 130.043L151.792 129.434C151.752 129.33 151.808 129.451 151.792 129.534C151.774 129.642 151.762 129.751 151.756 129.861C151.732 130.084 151.706 130.308 151.681 130.532C151.624 131.035 151.565 131.538 151.504 132.04C151.376 133.107 151.24 134.173 151.097 135.238C150.785 137.569 150.44 139.896 150.063 142.219C149.283 147.05 148.396 151.876 147.189 156.622C146.725 158.835 145.889 160.953 144.717 162.887C143.595 164.572 142.131 166.002 140.419 167.083C137.108 169.163 133.162 169.991 129.294 169.417C124.492 168.734 119.933 166.149 117.303 162.016C116.352 160.522 113.964 161.905 114.92 163.408C118.71 169.365 125.864 172.72 132.863 172.309C139.464 171.924 145.716 168.016 148.399 161.873C149.836 158.586 150.488 154.89 151.199 151.391C151.963 147.634 152.605 143.852 153.174 140.06C153.683 136.669 154.139 133.27 154.514 129.862C154.627 128.84 154.285 127.813 153.187 127.51C152.15 127.305 151.1 127.174 150.045 127.117C147.895 126.854 145.746 126.575 143.6 126.281C141.405 125.979 139.212 125.658 137.022 125.319C135.938 125.15 134.854 124.975 133.771 124.795C132.646 124.53 131.505 124.338 130.355 124.22C129.057 124.178 128.532 125.194 128.292 126.289C128.096 127.183 127.908 128.078 127.727 128.974C127.298 131.081 126.892 133.193 126.496 135.307C126.297 136.371 126.1 137.435 125.906 138.501C125.819 138.853 125.87 139.226 126.05 139.541C126.229 139.857 126.523 140.092 126.87 140.198C127.223 140.292 127.598 140.243 127.915 140.063C128.233 139.883 128.467 139.585 128.567 139.234L128.566 139.235Z" fill="#211715"/>
<path d="M75.6884 129.703C73.7468 130.839 66.048 135.435 60.9818 138.507L60.1438 134.024C57.4029 135.338 54.8592 137.029 52.5864 139.048C51.6144 140.037 50.889 141.24 50.4689 142.561C49.5912 145.127 48.8141 148.82 49.3072 152.164L49.3647 152.551C51.1852 156.419 53.8344 159.84 57.1244 162.57C60.0675 162.619 63.0089 162.396 65.9112 161.906C67.9564 161.439 69.8785 160.542 71.5493 159.274C75.5968 156.532 79.1752 153.155 82.1467 149.272C82.4534 148.847 82.6447 148.349 82.702 147.828C82.7456 147.571 82.7285 147.308 82.652 147.059C82.5756 146.81 82.4419 146.583 82.2617 146.395L81.1627 145.373C81.5898 145.037 81.8915 144.79 82.0191 144.668C82.599 144.178 83.0551 143.557 83.3504 142.858C83.4953 142.406 83.5043 141.921 83.3762 141.464C83.3486 141.226 83.2726 140.997 83.153 140.79C83.0335 140.583 82.8728 140.402 82.681 140.26C82.4891 140.117 82.2701 140.015 82.0373 139.96C81.8046 139.905 81.5631 139.898 81.3277 139.94L80.327 140.092C81.4524 139.266 82.2812 138.647 82.5773 138.412C82.7095 138.306 82.8457 138.192 82.9796 138.071C83.7882 137.391 84.4607 136.564 84.9615 135.633C85.1711 135.172 85.2474 134.661 85.182 134.158C85.1166 133.656 84.912 133.182 84.5913 132.789C83.8188 131.764 82.4721 131.422 80.6879 131.978C80.7871 131.572 80.7758 131.146 80.6554 130.746C80.5349 130.346 80.3096 129.985 80.0028 129.701C78.8883 128.47 76.8368 129.038 75.9631 129.542L75.6884 129.703Z" fill="white"/>
<path d="M50.6373 151.798C50.4155 149.851 50.526 147.882 50.9644 145.973C51.2443 144.29 51.8079 142.666 52.6313 141.172C53.4475 139.835 54.8793 138.845 56.1478 137.961C57.6675 136.931 59.254 136.003 60.8967 135.184C62.4757 134.37 61.0818 131.989 59.5046 132.802C57.7362 133.68 56.0353 134.688 54.416 135.818C52.798 136.983 51.1454 138.222 50.1327 139.975C49.1941 141.732 48.5509 143.633 48.2289 145.599C47.7608 147.88 47.6747 150.222 47.9743 152.531C48.0733 152.883 48.3069 153.181 48.6246 153.362C48.9423 153.542 49.3183 153.59 49.6711 153.495C50.0186 153.389 50.3123 153.154 50.4916 152.838C50.6709 152.523 50.722 152.15 50.6344 151.798H50.6373Z" fill="#211715"/>
<path d="M58.8143 111.062L79.1832 107.249C79.9346 107.109 80.711 107.272 81.3418 107.704C81.9725 108.136 82.4059 108.801 82.5465 109.552L90.2786 150.86C90.4193 151.611 90.2557 152.388 89.8238 153.019C89.392 153.649 88.7273 154.083 87.9759 154.223L67.607 158.036C66.8555 158.177 66.0789 158.013 65.448 157.581C64.8171 157.149 64.3837 156.484 64.243 155.733L56.5111 114.426C56.3704 113.674 56.5341 112.898 56.966 112.267C57.3979 111.636 58.0628 111.203 58.8143 111.062Z" fill="#ECECEC"/>
<path d="M87.5676 152.905L73.7261 155.491C71.6338 155.882 69.5439 156.327 67.4424 156.666C67.2314 156.714 67.0126 156.719 66.7997 156.679C66.5869 156.639 66.3845 156.556 66.2053 156.434C66.0261 156.312 65.874 156.155 65.7583 155.972C65.6426 155.789 65.5659 155.584 65.533 155.37C65.4755 155.116 65.4376 154.859 65.3899 154.605L62.9436 141.519L59.5195 123.202L58.2832 116.585C58.0616 115.718 57.9047 114.836 57.8136 113.946C57.7796 112.887 58.6482 112.494 59.5282 112.329L61.9998 111.869L70.8119 110.222L78.3939 108.805C78.8908 108.655 79.4088 108.587 79.9275 108.604C80.7534 108.733 81.0897 109.428 81.2305 110.16C81.964 113.975 82.6583 117.798 83.3722 121.617L86.8209 140.068L88.1941 147.411C88.424 148.635 88.7114 149.865 88.8839 151.098C88.9187 151.303 88.9121 151.513 88.8646 151.716C88.8171 151.919 88.7296 152.11 88.6072 152.278C88.4848 152.447 88.33 152.589 88.1518 152.697C87.9737 152.804 87.7759 152.875 87.5699 152.906C85.8375 153.29 86.5703 155.952 88.3033 155.566C89.4014 155.312 90.3569 154.639 90.9666 153.691C91.5762 152.743 91.7918 151.594 91.5675 150.49C91.5129 150.173 91.4491 149.858 91.3899 149.54L90.3593 144.025L86.9106 125.574L84.1217 110.656C84.0389 110.214 83.9608 109.772 83.874 109.334C83.7286 108.569 83.3788 107.857 82.8617 107.274C82.3446 106.692 81.6794 106.26 80.9368 106.025C79.9723 105.799 78.9666 105.818 78.0111 106.079L74.9791 106.647L58.7763 109.675C58.0749 109.777 57.4086 110.048 56.8346 110.464C56.2606 110.88 55.796 111.429 55.4805 112.063C55.064 113.03 54.9709 114.105 55.2149 115.129L56.0467 119.577L59.3528 137.285L62.3929 153.551C62.5174 154.607 62.7324 155.649 63.0355 156.668C63.4067 157.637 64.1125 158.441 65.0252 158.935C65.9379 159.428 66.9973 159.579 68.0115 159.359C68.68 159.244 69.3462 159.11 70.0129 158.985L86.956 155.818L88.2993 155.567C88.6503 155.467 88.948 155.233 89.1282 154.916C89.3084 154.598 89.3567 154.223 89.2626 153.87C89.1593 153.522 88.9252 153.227 88.6093 153.047C88.2934 152.867 87.9201 152.816 87.5676 152.905Z" fill="#211715"/>
<path d="M58.9131 140.57L58.8781 139.788C63.8 136.774 74.4434 130.419 75.9631 129.543C76.8368 129.04 78.8882 128.471 80.0027 129.703C80.3076 129.986 80.5321 130.344 80.6533 130.741C80.7744 131.139 80.788 131.562 80.6925 131.966C80.9259 131.909 81.0644 131.872 81.0644 131.872C82.6634 131.476 83.8745 131.84 84.5913 132.791C84.912 133.184 85.1166 133.658 85.182 134.161C85.2474 134.663 85.171 135.174 84.9615 135.636C84.3661 136.717 83.5534 137.663 82.5744 138.414C82.2801 138.65 81.4495 139.268 80.3246 140.094L81.3248 139.942C81.5602 139.901 81.8017 139.907 82.0344 139.962C82.2672 140.017 82.4862 140.119 82.6781 140.262C82.8699 140.405 83.0306 140.585 83.1501 140.792C83.2697 140.999 83.3456 141.229 83.3733 141.466C83.5014 141.923 83.4924 142.408 83.3474 142.86C83.0522 143.56 82.5961 144.18 82.0162 144.67C81.8892 144.792 81.5886 145.038 81.1621 145.373L82.2594 146.397C82.4393 146.585 82.5729 146.812 82.6494 147.06C82.726 147.309 82.7434 147.572 82.7002 147.828C82.6406 148.35 82.45 148.848 82.1461 149.277C79.1717 153.157 75.5919 156.533 71.5441 159.274C69.8727 160.541 67.9504 161.437 65.9054 161.902C63.9035 162.166 61.8768 162.185 59.8701 161.959L58.9131 140.57Z" fill="white"/>
<path d="M63.0062 117.426C64.1432 117.213 65.2801 117 66.417 116.786C66.7632 116.69 67.0586 116.463 67.2413 116.154C67.4259 115.838 67.4775 115.461 67.3846 115.108C67.2918 114.754 67.0623 114.451 66.7464 114.267C66.4202 114.095 66.0431 114.045 65.6836 114.127L62.2728 114.767C61.9266 114.863 61.6311 115.09 61.448 115.399C61.2635 115.721 61.2136 116.103 61.3089 116.462C61.4058 116.808 61.6322 117.103 61.9412 117.287C62.2677 117.458 62.6448 117.508 63.0045 117.426H63.0062Z" fill="#211715"/>
<path d="M59.5741 140.979C64.8833 137.73 70.2204 134.525 75.5855 131.365C76.4161 130.874 76.9926 130.435 77.8927 130.353C78.1669 130.308 78.4482 130.336 78.7083 130.434C78.9476 130.548 79.139 130.743 79.2486 130.984C79.3521 131.193 79.4671 131.336 79.3981 131.543C79.2359 131.8 79.0294 132.026 78.7882 132.211C78.656 132.322 78.5198 132.429 78.3859 132.536C78.2979 132.606 78.2094 132.675 78.1209 132.744C78.0019 132.837 78.1853 132.695 78.1922 132.687L77.9692 132.859C77.4752 133.237 76.9786 133.611 76.4793 133.981C75.2148 134.922 73.942 135.854 72.661 136.775C69.9491 138.734 67.2332 140.695 64.4547 142.559C62.9873 143.543 64.3667 145.934 65.8468 144.941C68.4995 143.162 71.0935 141.292 73.6835 139.423C76.062 137.708 78.5284 136.037 80.7672 134.138C82.5163 132.655 82.5181 130.352 80.9799 128.725C79.4889 127.15 77.0035 127.396 75.2504 128.361C72.9806 129.611 70.7808 131.009 68.5581 132.339C65.0921 134.411 61.6279 136.487 58.1832 138.595C56.6715 139.521 58.0561 141.908 59.5759 140.978L59.5741 140.979Z" fill="#211715"/>
<path d="M81.4312 133.202C82.3347 132.997 83.2785 133.036 83.6999 133.969C84.1976 135.071 83.0004 136.167 82.2738 136.851C82.0565 137.056 81.8209 137.239 81.599 137.438C81.4001 137.617 81.7278 137.342 81.6887 137.37C81.5272 137.491 81.3679 137.615 81.2064 137.735C80.7244 138.097 80.2398 138.455 79.7528 138.811C76.8716 140.93 73.9784 143.03 71.0735 145.113C69.9371 145.93 68.803 146.752 67.654 147.551C67.3452 147.742 67.1216 148.044 67.0294 148.396C66.9373 148.747 66.9838 149.12 67.1591 149.438C67.3458 149.752 67.6482 149.979 68.0013 150.072C68.3543 150.164 68.7296 150.115 69.0462 149.933C71.9063 147.944 74.7153 145.879 77.5341 143.831C79.0025 142.765 80.4678 141.693 81.9301 140.617C83.4395 139.5 84.9799 138.365 85.9536 136.713C86.4343 135.92 86.6406 134.991 86.5406 134.069C86.4407 133.147 86.0401 132.284 85.4007 131.613C84.1609 130.309 82.3721 130.164 80.7023 130.541C78.9716 130.933 79.7039 133.594 81.4358 133.202H81.4312Z" fill="#211715"/>
<path d="M81.3247 141.321C81.4661 141.299 81.6095 141.292 81.7524 141.301C81.7861 141.311 81.8182 141.326 81.8478 141.344C81.7472 141.303 81.8834 141.388 81.9024 141.416C81.7765 141.225 81.8834 141.411 81.907 141.446C81.9173 141.461 82.0151 141.644 81.9432 141.496C81.8714 141.348 81.9679 141.561 81.9765 141.594C82.0655 141.877 82.0704 142.179 81.9907 142.465C81.911 142.751 81.7502 143.007 81.5276 143.203C80.9665 143.776 80.3577 144.3 79.7078 144.77L79.7653 144.726L79.5779 144.871L79.2825 145.097C79.0334 145.289 78.7843 145.478 78.5353 145.666C77.9781 146.088 77.4198 146.509 76.8603 146.931C75.7184 147.789 74.574 148.645 73.4271 149.498C72.3925 150.271 71.3558 151.043 70.3169 151.816C70.0096 152.008 69.7872 152.311 69.6952 152.662C69.6033 153.012 69.6486 153.385 69.822 153.704C70.0087 154.017 70.3113 154.245 70.6644 154.338C71.0176 154.43 71.393 154.38 71.7096 154.198C74.0766 152.429 76.4511 150.671 78.8112 148.893C79.9268 148.052 81.0425 147.211 82.1404 146.347C83.2113 145.597 84.0642 144.577 84.612 143.391C85.5144 141.172 83.859 138.279 81.3288 138.562C80.9662 138.573 80.6213 138.722 80.3648 138.978C80.1084 139.234 79.9597 139.579 79.9493 139.942C79.9515 140.307 80.0976 140.657 80.3558 140.915C80.614 141.173 80.9636 141.319 81.3288 141.321H81.3247Z" fill="#211715"/>
<path d="M81.2839 147.372C81.753 147.883 80.5137 149.146 80.2418 149.479C79.4659 150.43 78.6503 151.347 77.795 152.23C76.1082 153.973 74.2819 155.574 72.3345 157.02C70.3871 158.465 68.3109 159.962 65.906 160.498C63.911 160.84 61.8748 160.87 59.8707 160.585C59.5054 160.587 59.1557 160.733 58.8974 160.991C58.6391 161.249 58.4932 161.599 58.4912 161.964C58.4998 162.328 58.6479 162.673 58.9048 162.93C59.1617 163.187 59.5076 163.335 59.8707 163.344C61.7322 163.57 63.6141 163.572 65.4761 163.349C67.6843 163.012 69.785 162.17 71.6148 160.889C75.3227 158.472 78.6704 155.544 81.5587 152.191C82.399 151.207 83.3946 150.186 83.8429 148.956C84.0823 148.369 84.1522 147.727 84.0447 147.102C83.9372 146.477 83.6566 145.895 83.2348 145.422C82.0312 144.111 80.0838 146.066 81.2839 147.373V147.372Z" fill="#211715"/>
<path d="M47.0236 150.279C48.0475 153.438 49.64 156.384 51.7225 158.97C53.7159 161.541 56.13 163.971 59.0505 165.469C60.6271 166.28 62.0244 163.9 60.4426 163.088C57.8314 161.746 55.6822 159.593 53.89 157.298C52.0267 154.993 50.6013 152.365 49.6843 149.546C49.1721 147.851 46.508 148.573 47.0241 150.279H47.0236Z" fill="#211715"/>
</g>
<defs>
<filter id="filter0_d_27_1440" x="-4.3" y="0" width="199.6" height="200.3" filterUnits="userSpaceOnUse" color-interpolation-filters="sRGB">
<feFlood flood-opacity="0" result="BackgroundImageFix"/>
<feColorMatrix in="SourceAlpha" type="matrix" values="0 0 0 0 0 0 0 0 0 0 0 0 0 0 0 0 0 0 127 0" result="hardAlpha"/>
<feOffset dx="4" dy="9"/>
<feGaussianBlur stdDeviation="4.15"/>
<feColorMatrix type="matrix" values="0 0 0 0 0 0 0 0 0 0 0 0 0 0 0 0 0 0 0.5 0"/>
<feBlend mode="normal" in2="BackgroundImageFix" result="effect1_dropShadow_27_1440"/>
<feBlend mode="normal" in="SourceGraphic" in2="effect1_dropShadow_27_1440" result="shape"/>
</filter>
<clipPath id="clip0_27_1440">
<rect width="183" height="183" fill="white"/>
</clipPath>
</defs>
</svg>
